# Blender 4.5.4 LTS
# www.blender.org
mtllib microwave.mtl
o Microwaves_01
v 0.166656 -0.249984 -0.000000
v 0.166656 0.249984 0.000000
v -0.166656 0.249984 0.000000
v -0.166656 -0.249984 -0.000000
v 0.166656 -0.249984 0.290794
v 0.166656 0.249984 0.290794
v -0.166656 0.249984 0.290794
v -0.166656 -0.249984 0.290794
v -0.166656 -0.113832 0.030608
v -0.166656 0.218553 0.030608
v -0.166656 0.218553 0.260186
v -0.166656 -0.113833 0.260186
v -0.162731 -0.169272 0.021345
v -0.162731 -0.169272 0.271329
v -0.162731 -0.133858 0.271329
v -0.162731 -0.133858 0.021345
v -0.184246 -0.165248 0.021345
v -0.184246 -0.137883 0.021345
v -0.184246 -0.137883 0.271329
v -0.184246 -0.165248 0.271329
v -0.165016 -0.241073 0.226476
v -0.165016 -0.176052 0.226476
v -0.165016 -0.176052 0.253175
v -0.165016 -0.241073 0.253175
v -0.171714 -0.241073 0.226476
v -0.171714 -0.176052 0.226476
v -0.171714 -0.176052 0.253175
v -0.171714 -0.241073 0.253175
v 0.163649 -0.218366 0.022859
v 0.163649 -0.186116 0.022859
v 0.163649 -0.218366 0.267935
v 0.163649 -0.186116 0.267935
v 0.176948 -0.209444 0.022859
v 0.176948 -0.209444 0.267935
v 0.176948 -0.195038 0.267935
v 0.176948 -0.195038 0.022859
v 0.163649 -0.135038 0.022859
v 0.163649 -0.102788 0.022859
v 0.163649 -0.135038 0.267935
v 0.163649 -0.102788 0.267935
v 0.176948 -0.126116 0.022859
v 0.176948 -0.126116 0.267935
v 0.176948 -0.111710 0.267935
v 0.176948 -0.111710 0.022859
v 0.163649 -0.051710 0.022859
v 0.163649 -0.019460 0.022859
v 0.163649 -0.051710 0.267935
v 0.163649 -0.019460 0.267935
v 0.176948 -0.042788 0.022859
v 0.176948 -0.042788 0.267935
v 0.176948 -0.028382 0.267935
v 0.176948 -0.028382 0.022859
v 0.163649 0.218366 0.022859
v 0.163649 0.186116 0.022859
v 0.163649 0.218366 0.267935
v 0.163649 0.186116 0.267935
v 0.176948 0.209444 0.022859
v 0.176948 0.209444 0.267935
v 0.176948 0.195038 0.267935
v 0.176948 0.195038 0.022859
v 0.163649 0.135038 0.022859
v 0.163649 0.102788 0.022859
v 0.163649 0.135038 0.267935
v 0.163649 0.102788 0.267935
v 0.176948 0.126116 0.022859
v 0.176948 0.126116 0.267935
v 0.176948 0.111710 0.267935
v 0.176948 0.111710 0.022859
v 0.163649 0.051710 0.022859
v 0.163649 0.019460 0.022859
v 0.163649 0.051710 0.267935
v 0.163649 0.019460 0.267935
v 0.176948 0.042788 0.022859
v 0.176948 0.042788 0.267935
v 0.176948 0.028382 0.267935
v 0.176948 0.028382 0.022859
vn -0.0000 -0.0000 -1.0000
vn 1.0000 -0.0000 -0.0000
vn -0.0000 1.0000 -0.0000
vn -1.0000 -0.0000 -0.0000
vn -0.0000 -1.0000 -0.0000
vn -0.0000 -0.0000 1.0000
vn -0.1839 0.9829 -0.0000
vn -0.1839 -0.9829 -0.0000
vn 0.5571 -0.8304 -0.0000
vn 0.5571 0.8304 -0.0000
vt 0.050000 0.730000
vt 0.040000 0.510000
vt 0.040000 0.640000
vt 0.040000 0.510000
vt 0.040000 0.640000
s 1
usemtl RGB_texture
f 3/1/1 2/1/1 1/1/1
f 6/1/2 5/1/2 1/1/2
f 7/1/3 6/1/3 2/1/3
f 11/2/4 10/2/4 9/2/4
f 8/1/5 4/1/5 1/1/5
f 7/1/6 8/1/6 5/1/6
f 4/1/4 9/1/4 10/1/4
f 7/1/4 3/1/4 10/1/4
f 7/1/4 11/1/4 12/1/4
f 8/1/4 12/1/4 9/1/4
f 19/3/4 18/3/4 17/3/4
f 13/3/1 17/3/1 18/3/1
f 15/3/7 16/3/7 18/3/7
f 14/3/6 15/3/6 19/3/6
f 14/3/8 20/3/8 17/3/8
f 27/4/4 26/4/4 25/4/4
f 21/4/1 25/4/1 26/4/1
f 23/4/3 22/4/3 26/4/3
f 24/4/6 23/4/6 27/4/6
f 24/4/5 28/4/5 25/4/5
f 35/5/2 34/5/2 33/5/2
f 31/5/9 29/5/9 33/5/9
f 31/5/6 34/5/6 35/5/6
f 32/5/10 35/5/10 36/5/10
f 29/5/1 30/5/1 36/5/1
f 43/5/2 42/5/2 41/5/2
f 39/5/9 37/5/9 41/5/9
f 39/5/6 42/5/6 43/5/6
f 40/5/10 43/5/10 44/5/10
f 37/5/1 38/5/1 44/5/1
f 51/5/2 50/5/2 49/5/2
f 47/5/9 45/5/9 49/5/9
f 47/5/6 50/5/6 51/5/6
f 48/5/10 51/5/10 52/5/10
f 45/5/1 46/5/1 52/5/1
f 58/5/2 59/5/2 60/5/2
f 53/5/10 55/5/10 58/5/10
f 58/5/6 55/5/6 56/5/6
f 59/5/9 56/5/9 54/5/9
f 54/5/1 53/5/1 57/5/1
f 66/5/2 67/5/2 68/5/2
f 61/5/10 63/5/10 66/5/10
f 66/5/6 63/5/6 64/5/6
f 67/5/9 64/5/9 62/5/9
f 62/5/1 61/5/1 65/5/1
f 74/5/2 75/5/2 76/5/2
f 69/5/10 71/5/10 74/5/10
f 74/5/6 71/5/6 72/5/6
f 75/5/9 72/5/9 70/5/9
f 70/5/1 69/5/1 73/5/1
f 4/1/1 3/1/1 1/1/1
f 2/1/2 6/1/2 1/1/2
f 3/1/3 7/1/3 2/1/3
f 12/2/4 11/2/4 9/2/4
f 5/1/5 8/1/5 1/1/5
f 6/1/6 7/1/6 5/1/6
f 3/1/4 4/1/4 10/1/4
f 11/1/4 7/1/4 10/1/4
f 8/1/4 7/1/4 12/1/4
f 4/1/4 8/1/4 9/1/4
f 20/3/4 19/3/4 17/3/4
f 16/3/1 13/3/1 18/3/1
f 19/3/7 15/3/7 18/3/7
f 20/3/6 14/3/6 19/3/6
f 13/3/8 14/3/8 17/3/8
f 28/4/4 27/4/4 25/4/4
f 22/4/1 21/4/1 26/4/1
f 27/4/3 23/4/3 26/4/3
f 28/4/6 24/4/6 27/4/6
f 21/4/5 24/4/5 25/4/5
f 36/5/2 35/5/2 33/5/2
f 34/5/9 31/5/9 33/5/9
f 32/5/6 31/5/6 35/5/6
f 30/5/10 32/5/10 36/5/10
f 33/5/1 29/5/1 36/5/1
f 44/5/2 43/5/2 41/5/2
f 42/5/9 39/5/9 41/5/9
f 40/5/6 39/5/6 43/5/6
f 38/5/10 40/5/10 44/5/10
f 41/5/1 37/5/1 44/5/1
f 52/5/2 51/5/2 49/5/2
f 50/5/9 47/5/9 49/5/9
f 48/5/6 47/5/6 51/5/6
f 46/5/10 48/5/10 52/5/10
f 49/5/1 45/5/1 52/5/1
f 57/5/2 58/5/2 60/5/2
f 57/5/10 53/5/10 58/5/10
f 59/5/6 58/5/6 56/5/6
f 60/5/9 59/5/9 54/5/9
f 60/5/1 54/5/1 57/5/1
f 65/5/2 66/5/2 68/5/2
f 65/5/10 61/5/10 66/5/10
f 67/5/6 66/5/6 64/5/6
f 68/5/9 67/5/9 62/5/9
f 68/5/1 62/5/1 65/5/1
f 73/5/2 74/5/2 76/5/2
f 73/5/10 69/5/10 74/5/10
f 75/5/6 74/5/6 72/5/6
f 76/5/9 75/5/9 70/5/9
f 76/5/1 70/5/1 73/5/1
