# Blender 4.5.4 LTS
# www.blender.org
mtllib microwave.mtl
o Microwaves_01
v 0.133325 -0.199987 0.000000
v 0.133325 0.199987 0.000000
v -0.133325 0.199987 0.000000
v -0.133325 -0.199987 0.000000
v 0.133325 -0.199987 0.232635
v 0.133325 0.199987 0.232635
v -0.133325 0.199987 0.232635
v -0.133325 -0.199987 0.232635
v -0.133325 -0.091066 0.024486
v -0.133325 0.174842 0.024486
v -0.133325 0.174842 0.208149
v -0.133325 -0.091066 0.208149
v -0.130185 -0.135418 0.017076
v -0.130185 -0.135418 0.217063
v -0.130185 -0.107086 0.217063
v -0.130185 -0.107086 0.017076
v -0.147397 -0.132198 0.017076
v -0.147397 -0.110306 0.017076
v -0.147397 -0.110306 0.217063
v -0.147397 -0.132198 0.217063
v -0.132013 -0.192858 0.181181
v -0.132013 -0.140842 0.181181
v -0.132013 -0.140842 0.202540
v -0.132013 -0.192858 0.202540
v -0.137371 -0.192858 0.181181
v -0.137371 -0.140842 0.181181
v -0.137371 -0.140842 0.202540
v -0.137371 -0.192858 0.202540
v 0.130919 -0.174693 0.018287
v 0.130919 -0.148893 0.018287
v 0.130919 -0.174693 0.214348
v 0.130919 -0.148893 0.214348
v 0.141558 -0.167555 0.018287
v 0.141558 -0.167555 0.214348
v 0.141558 -0.156030 0.214348
v 0.141558 -0.156030 0.018287
v 0.130919 -0.108030 0.018287
v 0.130919 -0.082230 0.018287
v 0.130919 -0.108030 0.214348
v 0.130919 -0.082230 0.214348
v 0.141558 -0.100893 0.018287
v 0.141558 -0.100893 0.214348
v 0.141558 -0.089368 0.214348
v 0.141558 -0.089368 0.018287
v 0.130919 -0.041368 0.018287
v 0.130919 -0.015568 0.018287
v 0.130919 -0.041368 0.214348
v 0.130919 -0.015568 0.214348
v 0.141558 -0.034230 0.018287
v 0.141558 -0.034230 0.214348
v 0.141558 -0.022706 0.214348
v 0.141558 -0.022706 0.018287
v 0.130919 0.174693 0.018287
v 0.130919 0.148893 0.018287
v 0.130919 0.174693 0.214348
v 0.130919 0.148893 0.214348
v 0.141558 0.167555 0.018287
v 0.141558 0.167555 0.214348
v 0.141558 0.156030 0.214348
v 0.141558 0.156030 0.018287
v 0.130919 0.108030 0.018287
v 0.130919 0.082230 0.018287
v 0.130919 0.108030 0.214348
v 0.130919 0.082230 0.214348
v 0.141558 0.100893 0.018287
v 0.141558 0.100893 0.214348
v 0.141558 0.089368 0.214348
v 0.141558 0.089368 0.018287
v 0.130919 0.041368 0.018287
v 0.130919 0.015568 0.018287
v 0.130919 0.041368 0.214348
v 0.130919 0.015568 0.214348
v 0.141558 0.034230 0.018287
v 0.141558 0.034230 0.214348
v 0.141558 0.022706 0.214348
v 0.141558 0.022706 0.018287
vn -0.0000 -0.0000 -1.0000
vn 1.0000 -0.0000 -0.0000
vn -0.0000 1.0000 -0.0000
vn -1.0000 -0.0000 -0.0000
vn -0.0000 -1.0000 -0.0000
vn -0.0000 -0.0000 1.0000
vn -0.1839 0.9829 -0.0000
vn -0.1838 -0.9830 -0.0000
vn 0.5571 -0.8304 -0.0000
vn 0.5571 0.8304 -0.0000
vt 0.050000 0.730000
vt 0.040000 0.510000
vt 0.040000 0.640000
s 1
usemtl RGB_texture.001
f 3/1/1 2/1/1 1/1/1
f 6/1/2 5/1/2 1/1/2
f 7/1/3 6/1/3 2/1/3
f 11/2/4 10/2/4 9/2/4
f 8/1/5 4/1/5 1/1/5
f 7/1/6 8/1/6 5/1/6
f 4/1/4 9/1/4 10/1/4
f 7/1/4 3/1/4 10/1/4
f 7/1/4 11/1/4 12/1/4
f 8/1/4 12/1/4 9/1/4
f 19/3/4 18/3/4 17/3/4
f 13/3/1 17/3/1 18/3/1
f 15/3/7 16/3/7 18/3/7
f 14/3/6 15/3/6 19/3/6
f 14/3/8 20/3/8 17/3/8
f 27/2/4 26/2/4 25/2/4
f 21/2/1 25/2/1 26/2/1
f 23/2/3 22/2/3 26/2/3
f 24/2/6 23/2/6 27/2/6
f 24/2/5 28/2/5 25/2/5
f 35/3/2 34/3/2 33/3/2
f 31/3/9 29/3/9 33/3/9
f 31/3/6 34/3/6 35/3/6
f 32/3/10 35/3/10 36/3/10
f 29/3/1 30/3/1 36/3/1
f 43/3/2 42/3/2 41/3/2
f 39/3/9 37/3/9 41/3/9
f 39/3/6 42/3/6 43/3/6
f 40/3/10 43/3/10 44/3/10
f 37/3/1 38/3/1 44/3/1
f 51/3/2 50/3/2 49/3/2
f 47/3/9 45/3/9 49/3/9
f 47/3/6 50/3/6 51/3/6
f 48/3/10 51/3/10 52/3/10
f 45/3/1 46/3/1 52/3/1
f 58/3/2 59/3/2 60/3/2
f 53/3/10 55/3/10 58/3/10
f 58/3/6 55/3/6 56/3/6
f 59/3/9 56/3/9 54/3/9
f 54/3/1 53/3/1 57/3/1
f 66/3/2 67/3/2 68/3/2
f 61/3/10 63/3/10 66/3/10
f 66/3/6 63/3/6 64/3/6
f 67/3/9 64/3/9 62/3/9
f 62/3/1 61/3/1 65/3/1
f 74/3/2 75/3/2 76/3/2
f 69/3/10 71/3/10 74/3/10
f 74/3/6 71/3/6 72/3/6
f 75/3/9 72/3/9 70/3/9
f 70/3/1 69/3/1 73/3/1
f 4/1/1 3/1/1 1/1/1
f 2/1/2 6/1/2 1/1/2
f 3/1/3 7/1/3 2/1/3
f 12/2/4 11/2/4 9/2/4
f 5/1/5 8/1/5 1/1/5
f 6/1/6 7/1/6 5/1/6
f 3/1/4 4/1/4 10/1/4
f 11/1/4 7/1/4 10/1/4
f 8/1/4 7/1/4 12/1/4
f 4/1/4 8/1/4 9/1/4
f 20/3/4 19/3/4 17/3/4
f 16/3/1 13/3/1 18/3/1
f 19/3/7 15/3/7 18/3/7
f 20/3/6 14/3/6 19/3/6
f 13/3/8 14/3/8 17/3/8
f 28/2/4 27/2/4 25/2/4
f 22/2/1 21/2/1 26/2/1
f 27/2/3 23/2/3 26/2/3
f 28/2/6 24/2/6 27/2/6
f 21/2/5 24/2/5 25/2/5
f 36/3/2 35/3/2 33/3/2
f 34/3/9 31/3/9 33/3/9
f 32/3/6 31/3/6 35/3/6
f 30/3/10 32/3/10 36/3/10
f 33/3/1 29/3/1 36/3/1
f 44/3/2 43/3/2 41/3/2
f 42/3/9 39/3/9 41/3/9
f 40/3/6 39/3/6 43/3/6
f 38/3/10 40/3/10 44/3/10
f 41/3/1 37/3/1 44/3/1
f 52/3/2 51/3/2 49/3/2
f 50/3/9 47/3/9 49/3/9
f 48/3/6 47/3/6 51/3/6
f 46/3/10 48/3/10 52/3/10
f 49/3/1 45/3/1 52/3/1
f 57/3/2 58/3/2 60/3/2
f 57/3/10 53/3/10 58/3/10
f 59/3/6 58/3/6 56/3/6
f 60/3/9 59/3/9 54/3/9
f 60/3/1 54/3/1 57/3/1
f 65/3/2 66/3/2 68/3/2
f 65/3/10 61/3/10 66/3/10
f 67/3/6 66/3/6 64/3/6
f 68/3/9 67/3/9 62/3/9
f 68/3/1 62/3/1 65/3/1
f 73/3/2 74/3/2 76/3/2
f 73/3/10 69/3/10 74/3/10
f 75/3/6 74/3/6 72/3/6
f 76/3/9 75/3/9 70/3/9
f 76/3/1 70/3/1 73/3/1
