# Blender 4.5.4 LTS
# www.blender.org
mtllib phone.mtl
o Cube.002
v 0.058965 -0.050472 0.002284
v 0.058965 -0.050472 -0.001736
v 0.029778 -0.050472 0.002284
v 0.029778 -0.050472 -0.001736
v 0.058965 -0.050420 0.002284
v 0.058965 -0.050420 -0.001736
v 0.029778 -0.050420 0.002284
v 0.029778 -0.050420 -0.001736
v 0.105538 0.042729 -0.004081
v 0.089604 0.050327 -0.004081
v 0.104995 0.044695 -0.004081
v 0.103403 0.046528 -0.004081
v 0.100871 0.048101 -0.004081
v 0.097571 0.049309 -0.004081
v 0.093728 0.050068 -0.004081
v 0.089496 0.049541 0.004081
v 0.103890 0.042677 0.004081
v 0.093298 0.049302 0.004081
v 0.096740 0.048622 0.004081
v 0.099696 0.047541 0.004081
v 0.101964 0.046131 0.004081
v 0.103389 0.044490 0.004081
v -0.089604 0.050327 -0.004081
v -0.105538 0.042729 -0.004081
v -0.093728 0.050068 -0.004081
v -0.097571 0.049309 -0.004081
v -0.100871 0.048101 -0.004081
v -0.103403 0.046528 -0.004081
v -0.104995 0.044695 -0.004081
v -0.103890 0.042677 0.004081
v -0.089496 0.049541 0.004081
v -0.103389 0.044490 0.004081
v -0.101964 0.046131 0.004081
v -0.099696 0.047541 0.004081
v -0.096740 0.048622 0.004081
v -0.093298 0.049302 0.004081
v 0.089604 -0.050327 -0.004081
v 0.105538 -0.042729 -0.004081
v 0.093728 -0.050068 -0.004081
v 0.097571 -0.049309 -0.004081
v 0.100871 -0.048101 -0.004081
v 0.103403 -0.046528 -0.004081
v 0.104995 -0.044695 -0.004081
v 0.103890 -0.042677 0.004081
v 0.089496 -0.049541 0.004081
v 0.103389 -0.044490 0.004081
v 0.101964 -0.046131 0.004081
v 0.099696 -0.047541 0.004081
v 0.096740 -0.048622 0.004081
v 0.093298 -0.049302 0.004081
v -0.105538 -0.042729 -0.004081
v -0.089604 -0.050327 -0.004081
v -0.104995 -0.044695 -0.004081
v -0.103403 -0.046528 -0.004081
v -0.100871 -0.048101 -0.004081
v -0.097571 -0.049309 -0.004081
v -0.093728 -0.050068 -0.004081
v -0.089496 -0.049541 0.004081
v -0.103890 -0.042677 0.004081
v -0.093298 -0.049302 0.004081
v -0.096740 -0.048622 0.004081
v -0.099696 -0.047541 0.004081
v -0.101964 -0.046131 0.004081
v -0.103389 -0.044490 0.004081
v 0.052232 -0.050472 0.002284
v 0.044936 -0.050472 0.002284
v 0.037639 -0.050472 0.002284
v 0.052232 -0.050420 -0.001736
v 0.044936 -0.050420 -0.001736
v 0.037639 -0.050420 -0.001736
v 0.037639 -0.050420 0.002284
v 0.044936 -0.050420 0.002284
v 0.052232 -0.050420 0.002284
v 0.037639 -0.050472 -0.001736
v 0.044936 -0.050472 -0.001736
v 0.052232 -0.050472 -0.001736
v 0.037639 -0.051263 0.002284
v 0.029778 -0.051263 0.002284
v 0.058965 -0.051263 0.002284
v 0.058965 -0.051263 -0.001736
v 0.029778 -0.051263 -0.001736
v 0.052232 -0.051263 -0.001736
v 0.052232 -0.051263 0.002284
v 0.037639 -0.051263 -0.001736
v 0.105538 0.042729 0.004081
v 0.104995 0.044695 0.004081
v 0.103403 0.046528 0.004081
v 0.100871 0.048101 0.004081
v 0.097571 0.049309 0.004081
v 0.093728 0.050068 0.004081
v 0.089604 0.050327 0.004081
v -0.104995 0.044695 0.004081
v -0.105538 0.042729 0.004081
v -0.103403 0.046528 0.004081
v -0.100871 0.048101 0.004081
v -0.097571 0.049309 0.004081
v -0.093728 0.050068 0.004081
v -0.089604 0.050327 0.004081
v -0.093728 -0.050068 0.004081
v -0.089604 -0.050327 0.004081
v -0.097571 -0.049309 0.004081
v -0.100871 -0.048101 0.004081
v -0.103403 -0.046528 0.004081
v -0.104995 -0.044695 0.004081
v -0.105538 -0.042729 0.004081
v 0.104995 -0.044695 0.004081
v 0.105538 -0.042729 0.004081
v 0.103403 -0.046528 0.004081
v 0.100871 -0.048101 0.004081
v 0.097571 -0.049309 0.004081
v 0.093728 -0.050068 0.004081
v 0.089604 -0.050327 0.004081
v 0.048879 -0.029493 -0.003834
v 0.048879 -0.029493 -0.004432
v 0.094170 -0.029493 -0.003834
v 0.094170 -0.029493 -0.004432
v 0.048879 -0.042562 -0.003834
v 0.048879 -0.042562 -0.004432
v 0.094170 -0.042562 -0.003834
v 0.094170 -0.042562 -0.004432
v 0.080705 -0.037831 -0.004405
v 0.080705 -0.037831 -0.004666
v 0.081194 -0.038679 -0.004405
v 0.081194 -0.038679 -0.004666
v 0.081853 -0.039423 -0.004405
v 0.081853 -0.039423 -0.004666
v 0.082656 -0.040033 -0.004405
v 0.082656 -0.040033 -0.004666
v 0.083572 -0.040487 -0.004405
v 0.083572 -0.040487 -0.004666
v 0.084566 -0.040766 -0.004405
v 0.084566 -0.040766 -0.004666
v 0.085600 -0.040860 -0.004405
v 0.085600 -0.040860 -0.004666
v 0.086633 -0.040766 -0.004405
v 0.086633 -0.040766 -0.004666
v 0.087627 -0.040487 -0.004405
v 0.087627 -0.040487 -0.004666
v 0.088543 -0.040033 -0.004405
v 0.088543 -0.040033 -0.004666
v 0.089346 -0.039423 -0.004405
v 0.089346 -0.039423 -0.004666
v 0.090005 -0.038679 -0.004405
v 0.090005 -0.038679 -0.004666
v 0.090495 -0.037831 -0.004405
v 0.090495 -0.037831 -0.004666
v 0.090796 -0.036910 -0.004405
v 0.090796 -0.036910 -0.004666
v 0.090898 -0.035952 -0.004405
v 0.090898 -0.035952 -0.004666
v 0.066346 -0.037649 -0.004530
v 0.066346 -0.037649 -0.004791
v 0.080403 -0.036910 -0.004666
v 0.080403 -0.036910 -0.004405
v 0.080301 -0.035952 -0.004666
v 0.080301 -0.035952 -0.004405
v 0.080403 -0.034995 -0.004666
v 0.080403 -0.034995 -0.004405
v 0.080705 -0.034074 -0.004666
v 0.080705 -0.034074 -0.004405
v 0.081194 -0.033226 -0.004666
v 0.081194 -0.033226 -0.004405
v 0.081853 -0.032482 -0.004666
v 0.081853 -0.032482 -0.004405
v 0.082656 -0.031872 -0.004666
v 0.082656 -0.031872 -0.004405
v 0.083572 -0.031418 -0.004666
v 0.083572 -0.031418 -0.004405
v 0.084566 -0.031139 -0.004666
v 0.084566 -0.031139 -0.004405
v 0.085600 -0.031044 -0.004666
v 0.085600 -0.031044 -0.004405
v 0.086633 -0.031139 -0.004666
v 0.086633 -0.031139 -0.004405
v 0.087627 -0.031418 -0.004666
v 0.087627 -0.031418 -0.004405
v 0.088543 -0.031872 -0.004666
v 0.088543 -0.031872 -0.004405
v 0.089346 -0.032482 -0.004666
v 0.089346 -0.032482 -0.004405
v 0.090005 -0.033226 -0.004666
v 0.090005 -0.033226 -0.004405
v 0.090495 -0.034074 -0.004666
v 0.090495 -0.034074 -0.004405
v 0.090796 -0.034995 -0.004666
v 0.090796 -0.034995 -0.004405
v 0.066836 -0.038497 -0.004530
v 0.066836 -0.038497 -0.004791
v 0.067495 -0.039241 -0.004530
v 0.067495 -0.039241 -0.004791
v 0.068298 -0.039851 -0.004530
v 0.068298 -0.039851 -0.004791
v 0.069214 -0.040305 -0.004530
v 0.069214 -0.040305 -0.004791
v 0.070208 -0.040584 -0.004530
v 0.070208 -0.040584 -0.004791
v 0.071241 -0.040679 -0.004530
v 0.071241 -0.040679 -0.004791
v 0.072275 -0.040584 -0.004530
v 0.072275 -0.040584 -0.004791
v 0.073269 -0.040305 -0.004530
v 0.073269 -0.040305 -0.004791
v 0.074185 -0.039851 -0.004530
v 0.074185 -0.039851 -0.004791
v 0.074988 -0.039241 -0.004530
v 0.074988 -0.039241 -0.004791
v 0.075647 -0.038497 -0.004530
v 0.075647 -0.038497 -0.004791
v 0.076136 -0.037649 -0.004530
v 0.076136 -0.037649 -0.004791
v 0.076438 -0.036728 -0.004530
v 0.076438 -0.036728 -0.004791
v 0.076540 -0.035771 -0.004530
v 0.076540 -0.035771 -0.004791
v 0.066045 -0.036728 -0.004193
v 0.066045 -0.036728 -0.003933
v 0.065943 -0.035771 -0.004193
v 0.065943 -0.035771 -0.003933
v 0.066045 -0.034813 -0.004791
v 0.066045 -0.034813 -0.004530
v 0.066346 -0.033892 -0.004791
v 0.066346 -0.033892 -0.004530
v 0.066836 -0.033044 -0.004791
v 0.066836 -0.033044 -0.004530
v 0.067495 -0.032300 -0.004791
v 0.067495 -0.032300 -0.004530
v 0.068298 -0.031690 -0.004791
v 0.068298 -0.031690 -0.004530
v 0.069214 -0.031236 -0.004791
v 0.069214 -0.031236 -0.004530
v 0.070208 -0.030957 -0.004791
v 0.070208 -0.030957 -0.004530
v 0.071241 -0.030863 -0.004791
v 0.071241 -0.030863 -0.004530
v 0.072275 -0.030957 -0.004791
v 0.072275 -0.030957 -0.004530
v 0.073269 -0.031236 -0.004791
v 0.073269 -0.031236 -0.004530
v 0.074185 -0.031690 -0.004791
v 0.074185 -0.031690 -0.004530
v 0.074988 -0.032300 -0.004791
v 0.074988 -0.032300 -0.004530
v 0.075647 -0.033044 -0.004791
v 0.075647 -0.033044 -0.004530
v 0.076136 -0.033892 -0.004791
v 0.076136 -0.033892 -0.004530
v 0.076438 -0.034813 -0.004791
v 0.076438 -0.034813 -0.004530
v 0.053322 -0.037763 -0.004618
v 0.053322 -0.037763 -0.004879
v 0.053812 -0.038611 -0.004618
v 0.053812 -0.038611 -0.004879
v 0.054471 -0.039355 -0.004618
v 0.054471 -0.039355 -0.004879
v 0.055274 -0.039965 -0.004618
v 0.055274 -0.039965 -0.004879
v 0.056190 -0.040419 -0.004618
v 0.056190 -0.040419 -0.004879
v 0.057183 -0.040698 -0.004618
v 0.057183 -0.040698 -0.004879
v 0.058217 -0.040793 -0.004618
v 0.058217 -0.040793 -0.004879
v 0.059251 -0.040698 -0.004618
v 0.059251 -0.040698 -0.004879
v 0.060245 -0.040419 -0.004618
v 0.060245 -0.040419 -0.004879
v 0.061161 -0.039965 -0.004618
v 0.061161 -0.039965 -0.004879
v 0.061964 -0.039355 -0.004618
v 0.061964 -0.039355 -0.004879
v 0.062622 -0.038611 -0.004618
v 0.062622 -0.038611 -0.004879
v 0.063112 -0.037763 -0.004618
v 0.063112 -0.037763 -0.004879
v 0.063414 -0.036842 -0.004618
v 0.063414 -0.036842 -0.004879
v 0.063515 -0.035885 -0.004618
v 0.063515 -0.035885 -0.004879
v 0.053021 -0.036842 -0.004879
v 0.053021 -0.036842 -0.004618
v 0.052919 -0.035885 -0.004879
v 0.052919 -0.035885 -0.004618
v 0.053021 -0.034927 -0.004879
v 0.053021 -0.034927 -0.004618
v 0.053322 -0.034006 -0.004879
v 0.053322 -0.034006 -0.004618
v 0.053812 -0.033158 -0.004879
v 0.053812 -0.033158 -0.004618
v 0.054471 -0.032414 -0.004879
v 0.054471 -0.032414 -0.004618
v 0.055274 -0.031804 -0.004879
v 0.055274 -0.031804 -0.004618
v 0.056190 -0.031350 -0.004879
v 0.056190 -0.031350 -0.004618
v 0.057183 -0.031071 -0.004879
v 0.057183 -0.031071 -0.004618
v 0.058217 -0.030977 -0.004879
v 0.058217 -0.030977 -0.004618
v 0.059251 -0.031071 -0.004879
v 0.059251 -0.031071 -0.004618
v 0.060245 -0.031350 -0.004879
v 0.060245 -0.031350 -0.004618
v 0.061161 -0.031804 -0.004879
v 0.061161 -0.031804 -0.004618
v 0.061964 -0.032414 -0.004879
v 0.061964 -0.032414 -0.004618
v 0.062622 -0.033158 -0.004879
v 0.062622 -0.033158 -0.004618
v 0.063112 -0.034006 -0.004879
v 0.063112 -0.034006 -0.004618
v 0.063414 -0.034927 -0.004879
v 0.063414 -0.034927 -0.004618
vn 1.0000 -0.0000 -0.0000
vn -0.0000 -1.0000 -0.0000
vn -0.0000 -0.0000 1.0000
vn -0.0000 1.0000 -0.0000
vn -1.0000 -0.0000 -0.0000
vn 0.9639 0.2661 -0.0000
vn 0.7550 0.6558 -0.0000
vn 0.5278 0.8494 -0.0000
vn 0.5278 0.8493 -0.0000
vn 0.3436 0.9391 -0.0000
vn 0.1938 0.9810 -0.0000
vn 0.0627 0.9980 -0.0000
vn -0.9639 0.2661 -0.0000
vn -0.7550 0.6558 -0.0000
vn -0.5278 0.8494 -0.0000
vn -0.5278 0.8493 -0.0000
vn -0.3436 0.9391 -0.0000
vn -0.1938 0.9810 -0.0000
vn -0.0627 0.9980 -0.0000
vn -0.0627 -0.9980 -0.0000
vn -0.1938 -0.9810 -0.0000
vn -0.3436 -0.9391 -0.0000
vn -0.5278 -0.8493 -0.0000
vn -0.5278 -0.8494 -0.0000
vn -0.7550 -0.6558 -0.0000
vn -0.9639 -0.2661 -0.0000
vn 0.9639 -0.2661 -0.0000
vn 0.7550 -0.6558 -0.0000
vn 0.5278 -0.8494 -0.0000
vn 0.5278 -0.8493 -0.0000
vn 0.3436 -0.9391 -0.0000
vn 0.1938 -0.9810 -0.0000
vn 0.0627 -0.9980 -0.0000
vn -0.0000 -0.0000 -1.0000
vn -0.7485 0.6631 -0.0000
vn -0.0190 -0.0020 -0.9998
vn -0.9944 0.1057 -0.0000
vn -0.8661 -0.4998 -0.0000
vn -0.9503 0.3112 -0.0000
vn -0.4437 0.8962 -0.0000
vn -0.7485 -0.6631 -0.0000
vn -0.8661 0.4998 -0.0000
vn -0.2705 0.9627 -0.0000
vn -0.6052 -0.7961 -0.0000
vn -0.0909 0.9959 -0.0000
vn -0.4437 -0.8962 -0.0000
vn -0.6052 0.7961 -0.0000
vn 0.0909 0.9959 -0.0000
vn -0.2705 -0.9627 -0.0000
vn 0.2705 0.9627 -0.0000
vn -0.0909 -0.9959 -0.0000
vn 0.4437 0.8962 -0.0000
vn 0.0909 -0.9959 -0.0000
vn 0.6052 0.7961 -0.0000
vn 0.2705 -0.9627 -0.0000
vn 0.7485 0.6631 -0.0000
vn 0.4437 -0.8962 -0.0000
vn 0.8661 0.4998 -0.0000
vn 0.6052 -0.7961 -0.0000
vn 0.9503 0.3112 -0.0000
vn 0.7485 -0.6631 -0.0000
vn 0.9944 0.1057 -0.0000
vn 0.8661 -0.4998 -0.0000
vn 0.9944 -0.1057 -0.0000
vn 0.9503 -0.3112 -0.0000
vn 0.0190 0.0020 0.9998
vn -0.9944 -0.1057 -0.0000
vn -0.9503 -0.3112 -0.0000
vn -0.0188 -0.0020 -0.9998
vn -0.9417 -0.1001 -0.3211
vn 0.9417 0.1001 0.3211
vn 0.0188 0.0020 0.9998
vt 0.625000 0.768872
vt 0.375000 0.981128
vt 0.375000 0.768872
vt 0.625000 0.518872
vt 0.375000 0.731128
vt 0.375000 0.518872
vt 0.625000 0.192331
vt 0.375000 0.250000
vt 0.375000 0.192331
vt 0.825294 0.470842
vt 0.872415 0.735463
vt 0.629559 0.752634
vt 0.625000 0.018872
vt 0.375000 0.231128
vt 0.375000 0.018872
vt 0.625000 0.268872
vt 0.375000 0.481128
vt 0.375000 0.268872
vt 0.625000 0.981128
vt 0.375000 0.986013
vt 0.625000 0.986013
vt 0.375000 0.990564
vt 0.625000 0.990564
vt 0.375000 1.000000
vt 0.625000 0.000000
vt 0.375000 0.009436
vt 0.375000 0.000000
vt 0.625000 0.009436
vt 0.375000 0.013987
vt 0.625000 0.013987
vt 0.703671 0.342873
vt 0.296329 0.342873
vt 0.705188 0.340467
vt 0.294812 0.340467
vt 0.706491 0.335176
vt 0.293509 0.335176
vt 0.707491 0.330188
vt 0.292509 0.330188
vt 0.708119 0.328671
vt 0.291881 0.328671
vt 0.625000 0.231128
vt 0.625214 0.513987
vt 0.374786 0.513987
vt 0.625843 0.509436
vt 0.374157 0.509436
vt 0.626842 0.501842
vt 0.373158 0.501842
vt 0.628145 0.494552
vt 0.371855 0.494552
vt 0.629662 0.490889
vt 0.370338 0.490889
vt 0.625000 0.481128
vt 0.629663 0.759111
vt 0.370338 0.759111
vt 0.628145 0.755448
vt 0.371855 0.755448
vt 0.626842 0.748158
vt 0.373158 0.748158
vt 0.625843 0.740564
vt 0.374157 0.740564
vt 0.625214 0.736013
vt 0.374786 0.736013
vt 0.625000 0.731128
vt 0.356128 0.500000
vt 0.134436 0.747472
vt 0.625000 0.250000
vt 0.375000 0.500000
vt 0.625000 0.557669
vt 0.625000 0.500000
vt 0.625000 0.750000
vt 0.375000 0.750000
vt 0.375000 0.682669
vt 0.125000 0.750000
vt 0.125001 0.682669
vt 0.875000 0.682669
vt 0.625000 0.682669
vt 0.875000 0.500000
vt 0.875000 0.557669
vt 0.625000 0.620169
vt 0.125001 0.557669
vt 0.125000 0.500000
vt 0.375000 0.620169
vt 0.125001 0.620169
vt 0.375000 0.557669
vt 0.375000 0.067331
vt 0.625000 0.067331
vt 0.375000 0.129831
vt 0.625000 0.129831
vt 0.860465 0.747417
vt 0.856128 0.750000
vt 0.855959 0.748007
vt 0.864542 0.745729
vt 0.861013 0.749357
vt 0.869473 0.744473
vt 0.865564 0.747472
vt 0.870728 0.739541
vt 0.868042 0.743042
vt 0.874357 0.736013
vt 0.872472 0.740564
vt 0.875000 0.731128
vt 0.731745 0.372813
vt 0.856128 0.500000
vt 0.713135 0.350087
vt 0.712937 0.344473
vt 0.715372 0.342297
vt 0.737567 0.365383
vt 0.875000 0.518872
vt 0.841027 0.483773
vt 0.626771 0.514219
vt 0.627312 0.509562
vt 0.628229 0.503229
vt 0.629548 0.497297
vt 0.632590 0.495142
vt 0.643872 0.500000
vt 0.642394 0.500260
vt 0.632603 0.754787
vt 0.643872 0.750000
vt 0.628240 0.746704
vt 0.627322 0.740371
vt 0.626781 0.735713
vt 0.626675 0.731128
vt 0.873003 0.730956
vt 0.642408 0.749663
vt 0.626664 0.518798
vt 0.906250 1.000000
vt 0.906250 0.500000
vt 0.580295 0.419706
vt 0.841844 0.028269
vt 0.985389 0.296822
vt 1.000000 1.000000
vt 0.968750 0.500000
vt 1.000000 0.500000
vt 0.296822 0.014612
vt 0.014612 0.203178
vt 0.203179 0.485388
vt 0.093750 1.000000
vt 0.062500 0.500000
vt 0.093750 0.500000
vt 0.968750 1.000000
vt 0.937500 0.500000
vt 0.843750 1.000000
vt 0.812500 0.500000
vt 0.843750 0.500000
vt 0.125000 1.000000
vt 0.937500 1.000000
vt 0.812500 1.000000
vt 0.781250 0.500000
vt 0.156250 1.000000
vt 0.156250 0.500000
vt 0.781250 1.000000
vt 0.750000 0.500000
vt 0.187500 1.000000
vt 0.187500 0.500000
vt 0.875000 1.000000
vt 0.750000 1.000000
vt 0.718750 0.500000
vt 0.218750 1.000000
vt 0.218750 0.500000
vt 0.718750 1.000000
vt 0.687500 0.500000
vt 0.250000 1.000000
vt 0.250000 0.500000
vt 0.687500 1.000000
vt 0.656250 0.500000
vt 0.281250 1.000000
vt 0.281250 0.500000
vt 0.656250 1.000000
vt 0.312500 1.000000
vt 0.312500 0.500000
vt 0.625000 1.000000
vt 0.593750 0.500000
vt 0.343750 1.000000
vt 0.343750 0.500000
vt 0.593750 1.000000
vt 0.562500 0.500000
vt 0.562500 1.000000
vt 0.531250 0.500000
vt 0.406250 1.000000
vt 0.406250 0.500000
vt 0.531250 1.000000
vt 0.500000 0.500000
vt 0.437500 1.000000
vt 0.437500 0.500000
vt 0.500000 1.000000
vt 0.468750 0.500000
vt 0.468750 1.000000
vt 0.658156 0.028269
vt 0.971731 0.158156
vt 0.841844 0.471731
vt 0.341844 0.028269
vt 0.031250 1.000000
vt 0.000000 0.500000
vt 0.031250 0.500000
vt 0.062500 1.000000
vt 0.125000 0.731128
vt 0.125000 0.518872
vt 0.143872 0.500000
vt 0.356128 0.750000
vt 0.143872 0.750000
vt 0.138987 0.749357
vt 0.130527 0.744473
vt 0.127528 0.740564
vt 0.125643 0.736013
vt 0.875000 0.750000
vt 0.875000 0.620169
vt 0.796822 0.485388
vt 0.750000 0.490000
vt 0.703179 0.485388
vt 0.658156 0.471731
vt 0.616664 0.449553
vt 0.550448 0.383337
vt 0.528269 0.341844
vt 0.514612 0.296822
vt 0.510000 0.250000
vt 0.514612 0.203178
vt 0.528269 0.158156
vt 0.550447 0.116663
vt 0.580294 0.080294
vt 0.616663 0.050447
vt 0.703178 0.014612
vt 0.750000 0.010000
vt 0.796822 0.014612
vt 0.883337 0.449553
vt 0.949553 0.383337
vt 0.919706 0.419706
vt 0.971731 0.341844
vt 0.985389 0.203178
vt 0.990000 0.250000
vt 0.949553 0.116663
vt 0.883337 0.050447
vt 0.919706 0.080294
vt 0.250000 0.490000
vt 0.296822 0.485388
vt 0.341844 0.471731
vt 0.383337 0.449553
vt 0.419706 0.419706
vt 0.449553 0.383337
vt 0.471731 0.341844
vt 0.485389 0.296822
vt 0.490000 0.250000
vt 0.485389 0.203178
vt 0.471731 0.158156
vt 0.449553 0.116663
vt 0.419706 0.080294
vt 0.383337 0.050447
vt 0.250000 0.010000
vt 0.203178 0.014612
vt 0.158156 0.028269
vt 0.116663 0.050447
vt 0.080294 0.080294
vt 0.050447 0.116663
vt 0.028269 0.158156
vt 0.010000 0.250000
vt 0.014612 0.296822
vt 0.028269 0.341844
vt 0.050448 0.383337
vt 0.080295 0.419706
vt 0.116664 0.449553
vt 0.158156 0.471731
vt 0.000000 1.000000
s 1
usemtl Metallic_phone.002
f 107/1/1 38/3/1 9/2/1
f 100/4/2 52/6/2 37/5/2
f 73/7/2 68/9/2 6/8/2
f 91/13/4 10/15/4 23/14/4
f 93/16/5 24/18/5 51/17/5
f 85/19/6 9/2/6 11/20/6
f 86/21/7 11/20/7 12/22/7
f 87/23/8 12/22/9 13/24/9
f 88/25/10 13/27/10 14/26/10
f 89/28/11 14/26/11 15/29/11
f 90/30/12 15/29/12 10/15/12
f 24/18/13 93/16/13 92/31/13
f 29/32/14 92/31/14 94/33/14
f 28/34/15 94/33/16 95/35/16
f 27/36/17 95/35/17 96/37/17
f 26/38/18 96/37/18 97/39/18
f 25/40/19 97/39/19 98/41/19
f 52/6/20 100/4/20 99/42/20
f 57/43/21 99/42/21 101/44/21
f 56/45/22 101/44/22 102/46/22
f 55/47/23 102/46/24 103/48/24
f 54/49/25 103/48/25 104/50/25
f 53/51/26 104/50/26 105/52/26
f 38/3/27 107/1/27 106/53/27
f 43/54/28 106/53/28 108/55/28
f 42/56/29 108/55/30 109/57/30
f 41/58/31 109/57/31 110/59/31
f 40/60/32 110/59/32 111/61/32
f 39/62/33 111/61/33 112/63/33
f 51/64/34 12/65/34 39/62/34
f 5/66/5 6/8/5 2/67/5
f 65/68/34 1/69/34 79/69/34
f 3/70/1 4/71/1 8/24/1
f 74/72/3 70/74/3 8/73/3
f 71/75/34 67/76/34 3/70/34
f 5/77/34 1/69/34 65/68/34
f 73/78/34 65/68/34 66/79/34
f 66/79/34 67/76/34 71/75/34
f 2/67/3 6/81/3 68/80/3
f 68/80/3 69/83/3 75/82/3
f 75/82/3 69/83/3 70/74/3
f 4/71/1 3/70/1 78/70/1
f 65/68/4 76/84/4 75/82/4
f 66/79/4 75/82/4 74/72/4
f 7/25/2 8/27/2 70/85/2
f 71/86/2 70/85/2 69/87/2
f 72/88/2 69/87/2 68/9/2
f 77/76/4 84/72/4 81/71/4
f 79/69/4 80/67/4 82/84/4
f 67/76/5 74/72/5 84/72/5
f 74/72/3 4/71/3 81/71/3
f 76/84/1 65/68/1 83/68/1
f 3/70/34 67/76/34 77/76/34
f 2/67/3 76/84/3 82/84/3
f 1/69/5 2/67/5 80/67/5
f 22/89/3 17/91/3 85/90/3
f 21/92/3 22/89/3 86/93/3
f 21/92/3 87/95/3 88/94/3
f 19/96/3 20/97/3 88/94/3
f 19/96/3 89/99/3 90/98/3
f 18/11/3 90/98/3 91/100/3
f 32/101/3 92/31/3 93/102/3
f 33/103/3 94/33/3 92/31/3
f 33/103/3 34/104/3 95/35/3
f 35/105/3 96/37/3 95/35/3
f 35/105/3 36/106/3 97/39/3
f 36/106/3 31/108/3 98/107/3
f 60/109/3 99/42/3 100/4/3
f 61/110/3 101/44/3 99/42/3
f 61/110/3 62/111/3 102/46/3
f 63/112/3 103/48/3 102/46/3
f 63/112/3 64/113/3 104/50/3
f 64/113/3 59/115/3 105/114/3
f 46/116/3 106/53/3 107/117/3
f 47/12/3 108/55/3 106/53/3
f 47/12/3 48/118/3 109/57/3
f 49/119/3 110/59/3 109/57/3
f 49/119/3 50/120/3 111/61/3
f 50/120/3 45/121/3 112/63/3
f 31/108/3 16/122/3 91/100/3
f 17/91/3 44/123/3 107/117/3
f 45/121/3 58/124/3 100/4/3
f 59/115/3 30/10/3 93/102/3
f 114/25/4 113/27/4 115/8/4
f 116/66/1 115/8/1 119/67/1
f 120/69/2 119/67/2 117/71/2
f 118/70/5 117/71/5 113/24/5
f 119/67/3 115/81/3 113/73/3
f 271/125/35 272/126/35 270/77/35
f 242/127/34 199/129/34 151/128/36
f 149/130/37 150/132/37 148/131/37
f 244/136/38 243/138/38 245/137/38
f 147/139/39 148/131/39 146/140/39
f 267/141/40 268/143/40 266/142/40
f 242/144/41 241/81/41 243/138/41
f 145/145/42 146/140/42 144/126/42
f 265/146/43 266/142/43 264/147/43
f 240/148/44 239/149/44 241/81/44
f 143/125/35 144/126/35 142/77/35
f 263/150/45 264/147/45 262/151/45
f 238/152/46 237/153/46 239/149/46
f 141/154/47 142/77/47 140/143/47
f 261/155/48 262/151/48 260/156/48
f 236/157/49 235/158/49 237/153/49
f 139/141/40 140/143/40 138/142/40
f 259/159/50 260/156/50 258/160/50
f 234/161/51 233/162/51 235/158/51
f 137/146/43 138/142/43 136/147/43
f 257/163/52 258/160/52 256/164/52
f 232/165/53 231/166/53 233/162/53
f 135/150/45 136/147/45 134/151/45
f 255/167/54 256/164/54 254/69/54
f 230/168/55 229/169/55 231/166/55
f 133/155/48 134/151/48 132/156/48
f 253/170/56 254/69/56 252/171/56
f 228/172/57 227/173/57 229/169/57
f 131/159/50 132/156/50 130/160/50
f 251/174/58 252/171/58 250/175/58
f 226/24/59 225/67/59 227/173/59
f 129/163/52 130/160/52 128/164/52
f 249/176/60 250/175/60 279/177/60
f 224/178/61 223/179/61 225/67/61
f 127/167/54 128/164/54 126/69/54
f 280/180/62 279/177/62 281/181/62
f 222/182/63 221/183/63 223/179/63
f 125/170/56 126/69/56 124/171/56
f 282/184/64 281/181/64 283/185/64
f 220/186/65 219/185/65 221/183/65
f 123/174/58 124/171/58 122/175/58
f 284/186/65 283/185/65 285/183/65
f 217/181/64 219/185/64 220/186/64
f 121/176/60 122/175/60 153/177/60
f 286/182/63 285/183/63 287/179/63
f 216/180/62 215/177/62 217/181/62
f 154/180/62 153/177/62 155/181/62
f 288/178/61 287/179/61 289/67/61
f 151/176/60 152/175/60 215/177/60
f 156/184/64 155/181/64 157/185/64
f 290/24/59 289/67/59 291/173/59
f 187/174/58 188/171/58 152/175/58
f 158/186/65 157/185/65 159/183/65
f 292/172/57 291/173/57 293/169/57
f 189/170/56 190/69/56 188/171/56
f 160/182/63 159/183/63 161/179/63
f 294/168/55 293/169/55 295/166/55
f 191/167/54 192/164/54 190/69/54
f 162/178/61 161/179/61 163/67/61
f 296/165/53 295/166/53 297/162/53
f 193/163/52 194/160/52 192/164/52
f 164/24/59 163/67/59 165/173/59
f 298/161/51 297/162/51 299/158/51
f 195/159/50 196/156/50 194/160/50
f 166/172/57 165/173/57 167/169/57
f 300/157/49 299/158/49 301/153/49
f 197/155/48 198/151/48 196/156/48
f 168/168/55 167/169/55 169/166/55
f 302/152/46 301/153/46 303/149/46
f 199/150/45 200/147/45 198/151/45
f 170/165/53 169/166/53 171/162/53
f 304/148/44 303/149/44 305/81/44
f 201/146/43 202/142/43 200/147/43
f 172/161/51 171/162/51 173/158/51
f 306/144/41 305/81/41 307/138/41
f 203/141/40 204/143/40 202/142/40
f 174/157/49 173/158/49 175/153/49
f 308/136/38 307/138/38 309/137/38
f 205/154/47 206/77/47 204/143/47
f 176/152/46 175/153/46 177/149/46
f 286/187/34 273/189/34 257/188/34
f 207/125/35 208/126/35 206/77/35
f 178/148/44 177/149/44 179/81/44
f 209/145/42 210/140/42 208/126/42
f 180/144/41 179/81/41 181/138/41
f 248/191/67 247/193/67 214/192/67
f 211/139/39 212/131/39 210/140/39
f 182/136/38 181/138/38 183/137/38
f 160/187/34 145/189/34 129/188/34
f 213/130/37 214/132/37 212/131/37
f 184/194/68 183/137/68 185/193/68
f 269/154/47 270/77/47 268/143/47
f 246/194/68 245/137/68 247/193/68
f 186/191/67 185/193/67 150/192/67
f 273/145/42 274/140/42 272/126/42
f 312/191/67 311/193/67 278/192/67
f 275/139/39 276/131/39 274/140/39
f 277/130/37 278/132/37 276/131/37
f 310/194/68 309/137/68 311/193/68
f 107/1/1 9/2/1 85/19/1
f 100/4/2 37/5/2 112/63/2
f 73/7/2 6/8/2 5/66/2
f 91/13/4 23/14/4 98/41/4
f 93/16/5 51/17/5 105/52/5
f 85/19/6 11/20/6 86/21/6
f 86/21/7 12/22/7 87/23/7
f 87/23/8 13/24/9 88/170/8
f 88/25/10 14/26/10 89/28/10
f 89/28/11 15/29/11 90/30/11
f 90/30/12 10/15/12 91/13/12
f 24/18/13 92/31/13 29/32/13
f 29/32/14 94/33/14 28/34/14
f 28/34/15 95/35/16 27/36/15
f 27/36/17 96/37/17 26/38/17
f 26/38/18 97/39/18 25/40/18
f 25/40/19 98/41/19 23/14/19
f 52/6/20 99/42/20 57/43/20
f 57/43/21 101/44/21 56/45/21
f 56/45/22 102/46/22 55/47/22
f 55/47/23 103/48/24 54/49/23
f 54/49/25 104/50/25 53/51/25
f 53/51/26 105/52/26 51/17/26
f 38/3/27 106/53/27 43/54/27
f 43/54/28 108/55/28 42/56/28
f 42/56/29 109/57/30 41/58/29
f 41/58/31 110/59/31 40/60/31
f 40/60/32 111/61/32 39/62/32
f 39/62/33 112/63/33 37/5/33
f 10/195/34 25/40/34 23/196/34
f 25/40/34 27/36/34 26/38/34
f 27/36/34 29/32/34 28/34/34
f 29/32/34 51/64/34 24/197/34
f 51/64/34 54/49/34 53/51/34
f 54/49/34 56/45/34 55/47/34
f 56/45/34 52/6/34 57/43/34
f 52/6/34 39/62/34 37/5/34
f 39/62/34 41/58/34 40/60/34
f 41/58/34 43/54/34 42/56/34
f 43/54/34 9/199/34 38/198/34
f 9/199/34 12/65/34 11/200/34
f 12/65/34 14/202/34 13/201/34
f 14/202/34 10/195/34 15/203/34
f 10/195/34 27/36/34 25/40/34
f 27/36/34 51/64/34 29/32/34
f 51/64/34 56/45/34 54/49/34
f 56/45/34 39/62/34 52/6/34
f 39/62/34 43/54/34 41/58/34
f 43/54/34 12/65/34 9/199/34
f 12/65/34 10/195/34 14/202/34
f 10/195/34 51/64/34 27/36/34
f 51/64/34 39/62/34 56/45/34
f 39/62/34 12/65/34 43/54/34
f 12/65/34 51/64/34 10/195/34
f 5/66/5 2/67/5 1/69/5
f 65/68/34 79/69/34 83/68/34
f 3/70/1 8/24/1 7/170/1
f 74/72/3 8/73/3 4/71/3
f 71/75/34 3/70/34 7/204/34
f 5/77/34 65/68/34 73/78/34
f 73/78/34 66/79/34 72/205/34
f 66/79/34 71/75/34 72/205/34
f 2/67/3 68/80/3 76/84/3
f 68/80/3 75/82/3 76/84/3
f 75/82/3 70/74/3 74/72/3
f 4/71/1 78/70/1 81/71/1
f 65/68/4 75/82/4 66/79/4
f 66/79/4 74/72/4 67/76/4
f 7/25/2 70/85/2 71/86/2
f 71/86/2 69/87/2 72/88/2
f 72/88/2 68/9/2 73/7/2
f 77/76/4 81/71/4 78/70/4
f 79/69/4 82/84/4 83/68/4
f 67/76/5 84/72/5 77/76/5
f 74/72/3 81/71/3 84/72/3
f 76/84/1 83/68/1 82/84/1
f 3/70/34 77/76/34 78/70/34
f 2/67/3 82/84/3 80/67/3
f 1/69/5 80/67/5 79/69/5
f 22/89/3 85/90/3 86/93/3
f 21/92/3 86/93/3 87/95/3
f 21/92/3 88/94/3 20/97/3
f 19/96/3 88/94/3 89/99/3
f 19/96/3 90/98/3 18/11/3
f 18/11/3 91/100/3 16/122/3
f 32/101/3 93/102/3 30/10/3
f 33/103/3 92/31/3 32/101/3
f 33/103/3 95/35/3 94/33/3
f 35/105/3 95/35/3 34/104/3
f 35/105/3 97/39/3 96/37/3
f 36/106/3 98/107/3 97/39/3
f 60/109/3 100/4/3 58/124/3
f 61/110/3 99/42/3 60/109/3
f 61/110/3 102/46/3 101/44/3
f 63/112/3 102/46/3 62/111/3
f 63/112/3 104/50/3 103/48/3
f 64/113/3 105/114/3 104/50/3
f 46/116/3 107/117/3 44/123/3
f 47/12/3 106/53/3 46/116/3
f 47/12/3 109/57/3 108/55/3
f 49/119/3 109/57/3 48/118/3
f 49/119/3 111/61/3 110/59/3
f 50/120/3 112/63/3 111/61/3
f 31/108/3 91/100/3 98/107/3
f 17/91/3 107/117/3 85/90/3
f 45/121/3 100/4/3 112/63/3
f 59/115/3 93/102/3 105/114/3
f 114/25/4 115/8/4 116/66/4
f 116/66/1 119/67/1 120/69/1
f 120/69/2 117/71/2 118/70/2
f 118/70/5 113/24/5 114/170/5
f 119/67/3 113/73/3 117/71/3
f 271/125/35 270/77/35 269/154/35
f 209/189/34 213/207/34 211/206/34
f 213/207/34 246/209/34 248/208/34
f 246/209/34 242/127/34 244/210/34
f 242/127/34 238/212/34 240/211/34
f 238/212/34 234/214/34 236/213/34
f 234/214/34 230/216/34 232/215/34
f 230/216/34 226/218/34 228/217/34
f 226/218/34 222/187/34 224/219/34
f 220/220/69 216/222/70 218/221/70
f 226/218/34 220/220/69 222/187/34
f 234/214/34 226/218/34 230/216/34
f 242/127/34 234/214/34 238/212/34
f 213/207/34 242/127/34 246/209/34
f 207/223/34 213/207/34 209/189/34
f 203/224/34 207/223/34 205/225/34
f 199/129/34 203/224/34 201/226/34
f 195/227/34 199/129/34 197/228/34
f 191/229/34 195/227/34 193/188/34
f 187/230/34 191/229/34 189/231/34
f 220/220/69 151/128/36 216/222/70
f 151/128/36 191/229/34 187/230/34
f 191/229/34 199/129/34 195/227/34
f 199/129/34 207/223/34 203/224/34
f 207/223/34 242/127/34 213/207/34
f 242/127/34 226/218/34 234/214/34
f 226/218/34 151/128/36 220/220/69
f 151/128/36 199/129/34 191/229/34
f 199/129/34 242/127/34 207/223/34
f 242/127/34 151/128/36 226/218/34
f 149/130/37 148/131/37 147/139/37
f 244/136/38 245/137/38 246/194/38
f 147/139/39 146/140/39 145/145/39
f 267/141/40 266/142/40 265/146/40
f 242/144/41 243/138/41 244/136/41
f 145/145/42 144/126/42 143/125/42
f 265/146/43 264/147/43 263/150/43
f 240/148/44 241/81/44 242/144/44
f 143/125/35 142/77/35 141/154/35
f 263/150/45 262/151/45 261/155/45
f 238/152/46 239/149/46 240/148/46
f 141/154/47 140/143/47 139/141/47
f 261/155/48 260/156/48 259/159/48
f 236/157/49 237/153/49 238/152/49
f 139/141/40 138/142/40 137/146/40
f 259/159/50 258/160/50 257/163/50
f 234/161/51 235/158/51 236/157/51
f 137/146/43 136/147/43 135/150/43
f 257/163/52 256/164/52 255/167/52
f 232/165/53 233/162/53 234/161/53
f 135/150/45 134/151/45 133/155/45
f 255/167/54 254/69/54 253/170/54
f 230/168/55 231/166/55 232/165/55
f 133/155/48 132/156/48 131/159/48
f 253/170/56 252/171/56 251/174/56
f 228/172/57 229/169/57 230/168/57
f 131/159/50 130/160/50 129/163/50
f 251/174/58 250/175/58 249/176/58
f 226/24/59 227/173/59 228/172/59
f 129/163/52 128/164/52 127/167/52
f 249/176/60 279/177/60 280/180/60
f 224/178/61 225/67/61 226/24/61
f 127/167/54 126/69/54 125/170/54
f 280/180/62 281/181/62 282/184/62
f 222/182/63 223/179/63 224/178/63
f 125/170/56 124/171/56 123/174/56
f 282/184/64 283/185/64 284/186/64
f 220/186/65 221/183/65 222/182/65
f 123/174/58 122/175/58 121/176/58
f 284/186/65 285/183/65 286/182/65
f 217/181/64 220/186/64 218/184/64
f 121/176/60 153/177/60 154/180/60
f 286/182/63 287/179/63 288/178/63
f 216/180/62 217/181/62 218/184/62
f 154/180/62 155/181/62 156/184/62
f 288/178/61 289/67/61 290/24/61
f 151/176/60 215/177/60 216/180/60
f 156/184/64 157/185/64 158/186/64
f 290/24/59 291/173/59 292/172/59
f 187/174/58 152/175/58 151/176/58
f 158/186/65 159/183/65 160/182/65
f 292/172/57 293/169/57 294/168/57
f 189/170/56 188/171/56 187/174/56
f 160/182/63 161/179/63 162/178/63
f 294/168/55 295/166/55 296/165/55
f 191/167/54 190/69/54 189/170/54
f 162/178/61 163/67/61 164/24/61
f 296/165/53 297/162/53 298/161/53
f 193/163/52 192/164/52 191/167/52
f 164/24/59 165/173/59 166/172/59
f 298/161/51 299/158/51 300/157/51
f 195/159/50 194/160/50 193/163/50
f 166/172/57 167/169/57 168/168/57
f 300/157/49 301/153/49 302/152/49
f 197/155/48 196/156/48 195/159/48
f 168/168/55 169/166/55 170/165/55
f 302/152/46 303/149/46 304/148/46
f 199/150/45 198/151/45 197/155/45
f 170/165/53 171/162/53 172/161/53
f 304/148/44 305/81/44 306/144/44
f 201/146/43 200/147/43 199/150/43
f 172/161/51 173/158/51 174/157/51
f 306/144/41 307/138/41 308/136/41
f 203/141/40 202/142/40 201/146/40
f 174/157/49 175/153/49 176/152/49
f 308/136/38 309/137/38 310/194/38
f 205/154/47 204/143/47 203/141/47
f 176/152/46 177/149/46 178/148/46
f 273/189/34 277/207/34 275/206/34
f 277/207/34 310/209/34 312/208/34
f 310/209/34 306/127/34 308/210/34
f 306/127/34 302/212/34 304/211/34
f 302/212/34 298/214/34 300/213/34
f 298/214/34 294/216/34 296/215/34
f 294/216/34 290/218/34 292/217/34
f 290/218/34 286/187/34 288/219/34
f 286/187/34 282/221/34 284/220/34
f 282/221/34 249/128/34 280/222/34
f 249/128/34 253/231/34 251/230/34
f 253/231/34 257/188/34 255/229/34
f 257/188/34 261/228/34 259/227/34
f 261/228/34 265/226/34 263/129/34
f 265/226/34 269/225/34 267/224/34
f 269/225/34 273/189/34 271/223/34
f 273/189/34 310/209/34 277/207/34
f 310/209/34 302/212/34 306/127/34
f 302/212/34 294/216/34 298/214/34
f 294/216/34 286/187/34 290/218/34
f 286/187/34 249/128/34 282/221/34
f 249/128/34 257/188/34 253/231/34
f 257/188/34 265/226/34 261/228/34
f 265/226/34 273/189/34 269/225/34
f 273/189/34 302/212/34 310/209/34
f 302/212/34 286/187/34 294/216/34
f 286/187/34 257/188/34 249/128/34
f 257/188/34 273/189/34 265/226/34
f 273/189/34 286/187/34 302/212/34
f 207/125/35 206/77/35 205/154/35
f 178/148/44 179/81/44 180/144/44
f 209/145/42 208/126/42 207/125/42
f 180/144/41 181/138/41 182/136/41
f 248/191/67 214/192/67 213/260/67
f 211/139/39 210/140/39 209/145/39
f 182/136/38 183/137/38 184/194/38
f 145/189/34 149/207/34 147/206/34
f 149/207/34 184/209/34 186/208/34
f 184/209/34 180/127/34 182/210/34
f 180/127/34 176/212/34 178/211/34
f 176/212/34 172/214/34 174/213/34
f 172/214/34 168/216/34 170/215/34
f 168/216/34 164/218/34 166/217/34
f 164/218/34 160/187/34 162/219/34
f 160/187/34 156/221/34 158/220/34
f 156/221/34 121/128/34 154/222/34
f 121/128/34 125/231/34 123/230/34
f 125/231/34 129/188/34 127/229/34
f 129/188/34 133/228/34 131/227/34
f 133/228/34 137/226/34 135/129/34
f 137/226/34 141/225/34 139/224/34
f 141/225/34 145/189/34 143/223/34
f 145/189/34 184/209/34 149/207/34
f 184/209/34 176/212/34 180/127/34
f 176/212/34 168/216/34 172/214/34
f 168/216/34 160/187/34 164/218/34
f 160/187/34 121/128/34 156/221/34
f 121/128/34 129/188/34 125/231/34
f 129/188/34 137/226/34 133/228/34
f 137/226/34 145/189/34 141/225/34
f 145/189/34 176/212/34 184/209/34
f 176/212/34 160/187/34 168/216/34
f 160/187/34 129/188/34 121/128/34
f 129/188/34 145/189/34 137/226/34
f 145/189/34 160/187/34 176/212/34
f 213/130/37 212/131/37 211/139/37
f 184/194/68 185/193/68 186/191/68
f 269/154/47 268/143/47 267/141/47
f 246/194/68 247/193/68 248/191/68
f 186/191/67 150/192/67 149/260/67
f 273/145/42 272/126/42 271/125/42
f 312/191/67 278/192/67 277/260/67
f 275/139/39 274/140/39 273/145/39
f 277/130/37 276/131/37 275/139/37
f 310/194/68 311/193/68 312/191/68
usemtl Screen.002
f 30/10/3 47/12/3 18/11/3
f 45/121/3 60/109/3 58/124/3
f 60/109/3 62/111/3 61/110/3
f 62/111/3 64/113/3 63/112/3
f 64/113/3 30/10/3 59/115/3
f 30/10/3 33/103/3 32/101/3
f 33/103/3 35/105/3 34/104/3
f 35/105/3 31/108/3 36/106/3
f 31/108/3 18/11/3 16/122/3
f 18/11/3 20/97/3 19/96/3
f 20/97/3 22/89/3 21/92/3
f 22/89/3 44/123/3 17/91/3
f 44/123/3 47/12/3 46/116/3
f 47/12/3 49/119/3 48/118/3
f 49/119/3 45/121/3 50/120/3
f 45/121/3 62/111/3 60/109/3
f 62/111/3 30/10/3 64/113/3
f 30/10/3 35/105/3 33/103/3
f 35/105/3 18/11/3 31/108/3
f 18/11/3 22/89/3 20/97/3
f 22/89/3 47/12/3 44/123/3
f 47/12/3 45/121/3 49/119/3
f 45/121/3 30/10/3 62/111/3
f 30/10/3 18/11/3 35/105/3
f 18/11/3 47/12/3 22/89/3
f 47/12/3 30/10/3 45/121/3
usemtl Camera.002
f 116/77/34 120/69/34 118/70/34
f 279/133/3 311/135/3 295/134/3
f 152/190/66 247/135/3 231/134/3
f 153/133/3 185/135/3 169/134/3
f 116/77/34 118/70/34 114/204/34
f 311/135/3 276/233/3 278/232/3
f 276/233/3 272/235/3 274/234/3
f 272/235/3 268/237/3 270/236/3
f 268/237/3 264/239/3 266/238/3
f 264/239/3 260/241/3 262/240/3
f 260/241/3 256/243/3 258/242/3
f 256/243/3 252/245/3 254/244/3
f 252/245/3 279/133/3 250/190/3
f 279/133/3 283/247/3 281/246/3
f 283/247/3 287/249/3 285/248/3
f 287/249/3 291/251/3 289/250/3
f 291/251/3 295/134/3 293/252/3
f 295/134/3 299/254/3 297/253/3
f 299/254/3 303/256/3 301/255/3
f 303/256/3 307/258/3 305/257/3
f 307/258/3 311/135/3 309/259/3
f 311/135/3 272/235/3 276/233/3
f 272/235/3 264/239/3 268/237/3
f 264/239/3 256/243/3 260/241/3
f 256/243/3 279/133/3 252/245/3
f 279/133/3 287/249/3 283/247/3
f 287/249/3 295/134/3 291/251/3
f 295/134/3 303/256/3 299/254/3
f 303/256/3 311/135/3 307/258/3
f 311/135/3 264/239/3 272/235/3
f 264/239/3 279/133/3 256/243/3
f 279/133/3 295/134/3 287/249/3
f 295/134/3 311/135/3 303/256/3
f 311/135/3 279/133/3 264/239/3
f 247/135/3 212/233/3 214/232/3
f 212/233/3 208/235/3 210/234/3
f 208/235/3 204/237/3 206/236/3
f 204/237/3 200/239/3 202/238/3
f 200/239/3 196/241/3 198/240/3
f 196/241/3 192/243/3 194/242/3
f 192/243/3 188/245/3 190/244/3
f 152/190/66 217/246/71 215/133/71
f 192/243/3 152/190/66 188/245/3
f 200/239/3 192/243/3 196/241/3
f 208/235/3 200/239/3 204/237/3
f 247/135/3 208/235/3 212/233/3
f 243/258/3 247/135/3 245/259/3
f 239/256/3 243/258/3 241/257/3
f 235/254/3 239/256/3 237/255/3
f 231/134/3 235/254/3 233/253/3
f 227/251/3 231/134/3 229/252/3
f 223/249/3 227/251/3 225/250/3
f 219/247/72 223/249/3 221/248/3
f 152/190/66 219/247/72 217/246/71
f 200/239/3 152/190/66 192/243/3
f 247/135/3 200/239/3 208/235/3
f 239/256/3 247/135/3 243/258/3
f 231/134/3 239/256/3 235/254/3
f 223/249/3 231/134/3 227/251/3
f 152/190/66 223/249/3 219/247/72
f 247/135/3 152/190/66 200/239/3
f 231/134/3 247/135/3 239/256/3
f 152/190/66 231/134/3 223/249/3
f 185/135/3 148/233/3 150/232/3
f 148/233/3 144/235/3 146/234/3
f 144/235/3 140/237/3 142/236/3
f 140/237/3 136/239/3 138/238/3
f 136/239/3 132/241/3 134/240/3
f 132/241/3 128/243/3 130/242/3
f 128/243/3 124/245/3 126/244/3
f 124/245/3 153/133/3 122/190/3
f 153/133/3 157/247/3 155/246/3
f 157/247/3 161/249/3 159/248/3
f 161/249/3 165/251/3 163/250/3
f 165/251/3 169/134/3 167/252/3
f 169/134/3 173/254/3 171/253/3
f 173/254/3 177/256/3 175/255/3
f 177/256/3 181/258/3 179/257/3
f 181/258/3 185/135/3 183/259/3
f 185/135/3 144/235/3 148/233/3
f 144/235/3 136/239/3 140/237/3
f 136/239/3 128/243/3 132/241/3
f 128/243/3 153/133/3 124/245/3
f 153/133/3 161/249/3 157/247/3
f 161/249/3 169/134/3 165/251/3
f 169/134/3 177/256/3 173/254/3
f 177/256/3 185/135/3 181/258/3
f 185/135/3 136/239/3 144/235/3
f 136/239/3 153/133/3 128/243/3
f 153/133/3 169/134/3 161/249/3
f 169/134/3 185/135/3 177/256/3
f 185/135/3 153/133/3 136/239/3
