# Blender 4.5.4 LTS
# www.blender.org
mtllib phone.mtl
o Phone
v -0.050472 -0.058965 0.006999
v -0.050472 -0.058965 0.002979
v -0.050472 -0.029778 0.006999
v -0.050472 -0.029778 0.002979
v -0.050420 -0.058965 0.006999
v -0.050420 -0.058965 0.002979
v -0.050420 -0.029778 0.006999
v -0.050420 -0.029778 0.002979
v 0.042729 -0.105538 0.000634
v 0.050327 -0.089604 0.000634
v 0.044695 -0.104995 0.000634
v 0.046528 -0.103403 0.000634
v 0.048101 -0.100871 0.000634
v 0.049309 -0.097571 0.000634
v 0.050068 -0.093728 0.000634
v 0.049541 -0.089496 0.008796
v 0.042677 -0.103890 0.008796
v 0.049302 -0.093298 0.008796
v 0.048622 -0.096740 0.008796
v 0.047541 -0.099696 0.008796
v 0.046131 -0.101964 0.008796
v 0.044490 -0.103389 0.008796
v 0.050327 0.089604 0.000634
v 0.042729 0.105538 0.000634
v 0.050068 0.093728 0.000634
v 0.049309 0.097571 0.000634
v 0.048101 0.100871 0.000634
v 0.046528 0.103403 0.000634
v 0.044695 0.104995 0.000634
v 0.042677 0.103890 0.008796
v 0.049541 0.089496 0.008796
v 0.044490 0.103389 0.008796
v 0.046131 0.101964 0.008796
v 0.047541 0.099696 0.008796
v 0.048622 0.096740 0.008796
v 0.049302 0.093298 0.008796
v -0.050327 -0.089604 0.000634
v -0.042729 -0.105538 0.000634
v -0.050068 -0.093728 0.000634
v -0.049309 -0.097571 0.000634
v -0.048101 -0.100871 0.000634
v -0.046528 -0.103403 0.000634
v -0.044695 -0.104995 0.000634
v -0.042677 -0.103890 0.008796
v -0.049541 -0.089496 0.008796
v -0.044490 -0.103389 0.008796
v -0.046131 -0.101964 0.008796
v -0.047541 -0.099696 0.008796
v -0.048622 -0.096740 0.008796
v -0.049302 -0.093298 0.008796
v -0.042729 0.105538 0.000634
v -0.050327 0.089604 0.000634
v -0.044695 0.104995 0.000634
v -0.046528 0.103403 0.000634
v -0.048101 0.100871 0.000634
v -0.049309 0.097571 0.000634
v -0.050068 0.093728 0.000634
v -0.049541 0.089496 0.008796
v -0.042677 0.103890 0.008796
v -0.049302 0.093298 0.008796
v -0.048622 0.096740 0.008796
v -0.047541 0.099696 0.008796
v -0.046131 0.101964 0.008796
v -0.044490 0.103389 0.008796
v -0.050472 -0.052232 0.006999
v -0.050472 -0.044936 0.006999
v -0.050472 -0.037639 0.006999
v -0.050420 -0.052232 0.002979
v -0.050420 -0.044936 0.002979
v -0.050420 -0.037639 0.002979
v -0.050420 -0.037639 0.006999
v -0.050420 -0.044936 0.006999
v -0.050420 -0.052232 0.006999
v -0.050472 -0.037639 0.002979
v -0.050472 -0.044936 0.002979
v -0.050472 -0.052232 0.002979
v -0.051263 -0.037639 0.006999
v -0.051263 -0.029778 0.006999
v -0.051263 -0.058965 0.006999
v -0.051263 -0.058965 0.002979
v -0.051263 -0.029778 0.002979
v -0.051263 -0.052232 0.002979
v -0.051263 -0.052232 0.006999
v -0.051263 -0.037639 0.002979
v 0.042729 -0.105538 0.008796
v 0.044695 -0.104995 0.008796
v 0.046528 -0.103403 0.008796
v 0.048101 -0.100871 0.008796
v 0.049309 -0.097571 0.008796
v 0.050068 -0.093728 0.008796
v 0.050327 -0.089604 0.008796
v 0.044695 0.104995 0.008796
v 0.042729 0.105538 0.008796
v 0.046528 0.103403 0.008796
v 0.048101 0.100871 0.008796
v 0.049309 0.097571 0.008796
v 0.050068 0.093728 0.008796
v 0.050327 0.089604 0.008796
v -0.050068 0.093728 0.008796
v -0.050327 0.089604 0.008796
v -0.049309 0.097571 0.008796
v -0.048101 0.100871 0.008796
v -0.046528 0.103403 0.008796
v -0.044695 0.104995 0.008796
v -0.042729 0.105538 0.008796
v -0.044695 -0.104995 0.008796
v -0.042729 -0.105538 0.008796
v -0.046528 -0.103403 0.008796
v -0.048101 -0.100871 0.008796
v -0.049309 -0.097571 0.008796
v -0.050068 -0.093728 0.008796
v -0.050327 -0.089604 0.008796
v -0.029493 -0.048879 0.000881
v -0.029493 -0.048879 0.000283
v -0.029493 -0.094170 0.000881
v -0.029493 -0.094170 0.000283
v -0.042562 -0.048879 0.000881
v -0.042562 -0.048879 0.000283
v -0.042562 -0.094170 0.000881
v -0.042562 -0.094170 0.000283
v -0.037831 -0.080705 0.000310
v -0.037831 -0.080705 0.000049
v -0.038679 -0.081194 0.000310
v -0.038679 -0.081194 0.000049
v -0.039423 -0.081853 0.000310
v -0.039423 -0.081853 0.000049
v -0.040033 -0.082656 0.000310
v -0.040033 -0.082656 0.000049
v -0.040487 -0.083572 0.000310
v -0.040487 -0.083572 0.000049
v -0.040766 -0.084566 0.000310
v -0.040766 -0.084566 0.000049
v -0.040860 -0.085600 0.000310
v -0.040860 -0.085600 0.000049
v -0.040766 -0.086633 0.000310
v -0.040766 -0.086633 0.000049
v -0.040487 -0.087627 0.000310
v -0.040487 -0.087627 0.000049
v -0.040033 -0.088543 0.000310
v -0.040033 -0.088543 0.000049
v -0.039423 -0.089346 0.000310
v -0.039423 -0.089346 0.000049
v -0.038679 -0.090005 0.000310
v -0.038679 -0.090005 0.000049
v -0.037831 -0.090495 0.000310
v -0.037831 -0.090495 0.000049
v -0.036910 -0.090796 0.000310
v -0.036910 -0.090796 0.000049
v -0.035952 -0.090898 0.000310
v -0.035952 -0.090898 0.000049
v -0.037649 -0.066346 0.000185
v -0.037649 -0.066346 -0.000076
v -0.036910 -0.080403 0.000049
v -0.036910 -0.080403 0.000310
v -0.035952 -0.080301 0.000049
v -0.035952 -0.080301 0.000310
v -0.034995 -0.080403 0.000049
v -0.034995 -0.080403 0.000310
v -0.034074 -0.080705 0.000049
v -0.034074 -0.080705 0.000310
v -0.033226 -0.081194 0.000049
v -0.033226 -0.081194 0.000310
v -0.032482 -0.081853 0.000049
v -0.032482 -0.081853 0.000310
v -0.031872 -0.082656 0.000049
v -0.031872 -0.082656 0.000310
v -0.031418 -0.083572 0.000049
v -0.031418 -0.083572 0.000310
v -0.031139 -0.084566 0.000049
v -0.031139 -0.084566 0.000310
v -0.031044 -0.085600 0.000049
v -0.031044 -0.085600 0.000310
v -0.031139 -0.086633 0.000049
v -0.031139 -0.086633 0.000310
v -0.031418 -0.087627 0.000049
v -0.031418 -0.087627 0.000310
v -0.031872 -0.088543 0.000049
v -0.031872 -0.088543 0.000310
v -0.032482 -0.089346 0.000049
v -0.032482 -0.089346 0.000310
v -0.033226 -0.090005 0.000049
v -0.033226 -0.090005 0.000310
v -0.034074 -0.090495 0.000049
v -0.034074 -0.090495 0.000310
v -0.034995 -0.090796 0.000049
v -0.034995 -0.090796 0.000310
v -0.038497 -0.066836 0.000185
v -0.038497 -0.066836 -0.000076
v -0.039241 -0.067495 0.000185
v -0.039241 -0.067495 -0.000076
v -0.039851 -0.068298 0.000185
v -0.039851 -0.068298 -0.000076
v -0.040305 -0.069214 0.000185
v -0.040305 -0.069214 -0.000076
v -0.040584 -0.070208 0.000185
v -0.040584 -0.070208 -0.000076
v -0.040679 -0.071241 0.000185
v -0.040679 -0.071241 -0.000076
v -0.040584 -0.072275 0.000185
v -0.040584 -0.072275 -0.000076
v -0.040305 -0.073269 0.000185
v -0.040305 -0.073269 -0.000076
v -0.039851 -0.074185 0.000185
v -0.039851 -0.074185 -0.000076
v -0.039241 -0.074988 0.000185
v -0.039241 -0.074988 -0.000076
v -0.038497 -0.075647 0.000185
v -0.038497 -0.075647 -0.000076
v -0.037649 -0.076136 0.000185
v -0.037649 -0.076136 -0.000076
v -0.036728 -0.076438 0.000185
v -0.036728 -0.076438 -0.000076
v -0.035771 -0.076540 0.000185
v -0.035771 -0.076540 -0.000076
v -0.036728 -0.066045 0.000522
v -0.036728 -0.066045 0.000782
v -0.035771 -0.065943 0.000522
v -0.035771 -0.065943 0.000782
v -0.034813 -0.066045 -0.000076
v -0.034813 -0.066045 0.000185
v -0.033892 -0.066346 -0.000076
v -0.033892 -0.066346 0.000185
v -0.033044 -0.066836 -0.000076
v -0.033044 -0.066836 0.000185
v -0.032300 -0.067495 -0.000076
v -0.032300 -0.067495 0.000185
v -0.031690 -0.068298 -0.000076
v -0.031690 -0.068298 0.000185
v -0.031236 -0.069214 -0.000076
v -0.031236 -0.069214 0.000185
v -0.030957 -0.070208 -0.000076
v -0.030957 -0.070208 0.000185
v -0.030863 -0.071241 -0.000076
v -0.030863 -0.071241 0.000185
v -0.030957 -0.072275 -0.000076
v -0.030957 -0.072275 0.000185
v -0.031236 -0.073269 -0.000076
v -0.031236 -0.073269 0.000185
v -0.031690 -0.074185 -0.000076
v -0.031690 -0.074185 0.000185
v -0.032300 -0.074988 -0.000076
v -0.032300 -0.074988 0.000185
v -0.033044 -0.075647 -0.000076
v -0.033044 -0.075647 0.000185
v -0.033892 -0.076136 -0.000076
v -0.033892 -0.076136 0.000185
v -0.034813 -0.076438 -0.000076
v -0.034813 -0.076438 0.000185
v -0.037763 -0.053322 0.000097
v -0.037763 -0.053322 -0.000164
v -0.038611 -0.053812 0.000097
v -0.038611 -0.053812 -0.000164
v -0.039355 -0.054471 0.000097
v -0.039355 -0.054471 -0.000164
v -0.039965 -0.055274 0.000097
v -0.039965 -0.055274 -0.000164
v -0.040419 -0.056190 0.000097
v -0.040419 -0.056190 -0.000164
v -0.040698 -0.057183 0.000097
v -0.040698 -0.057183 -0.000164
v -0.040793 -0.058217 0.000097
v -0.040793 -0.058217 -0.000164
v -0.040698 -0.059251 0.000097
v -0.040698 -0.059251 -0.000164
v -0.040419 -0.060245 0.000097
v -0.040419 -0.060245 -0.000164
v -0.039965 -0.061161 0.000097
v -0.039965 -0.061161 -0.000164
v -0.039355 -0.061964 0.000097
v -0.039355 -0.061964 -0.000164
v -0.038611 -0.062622 0.000097
v -0.038611 -0.062622 -0.000164
v -0.037763 -0.063112 0.000097
v -0.037763 -0.063112 -0.000164
v -0.036842 -0.063414 0.000097
v -0.036842 -0.063414 -0.000164
v -0.035885 -0.063515 0.000097
v -0.035885 -0.063515 -0.000164
v -0.036842 -0.053021 -0.000164
v -0.036842 -0.053021 0.000097
v -0.035885 -0.052919 -0.000164
v -0.035885 -0.052919 0.000097
v -0.034927 -0.053021 -0.000164
v -0.034927 -0.053021 0.000097
v -0.034006 -0.053322 -0.000164
v -0.034006 -0.053322 0.000097
v -0.033158 -0.053812 -0.000164
v -0.033158 -0.053812 0.000097
v -0.032414 -0.054471 -0.000164
v -0.032414 -0.054471 0.000097
v -0.031804 -0.055274 -0.000164
v -0.031804 -0.055274 0.000097
v -0.031350 -0.056190 -0.000164
v -0.031350 -0.056190 0.000097
v -0.031071 -0.057183 -0.000164
v -0.031071 -0.057183 0.000097
v -0.030977 -0.058217 -0.000164
v -0.030977 -0.058217 0.000097
v -0.031071 -0.059251 -0.000164
v -0.031071 -0.059251 0.000097
v -0.031350 -0.060245 -0.000164
v -0.031350 -0.060245 0.000097
v -0.031804 -0.061161 -0.000164
v -0.031804 -0.061161 0.000097
v -0.032414 -0.061964 -0.000164
v -0.032414 -0.061964 0.000097
v -0.033158 -0.062622 -0.000164
v -0.033158 -0.062622 0.000097
v -0.034006 -0.063112 -0.000164
v -0.034006 -0.063112 0.000097
v -0.034927 -0.063414 -0.000164
v -0.034927 -0.063414 0.000097
vn -0.0000 -1.0000 -0.0000
vn -1.0000 -0.0000 -0.0000
vn 1.0000 -0.0000 -0.0000
vn -0.0000 1.0000 -0.0000
vn 0.2662 -0.9639 -0.0000
vn 0.6557 -0.7550 -0.0000
vn 0.8494 -0.5277 -0.0000
vn 0.8492 -0.5281 -0.0000
vn 0.9391 -0.3438 -0.0000
vn 0.9810 -0.1938 -0.0000
vn 0.9980 -0.0627 -0.0000
vn 0.2662 0.9639 -0.0000
vn 0.6557 0.7550 -0.0000
vn 0.8494 0.5277 -0.0000
vn 0.8492 0.5281 -0.0000
vn 0.9391 0.3438 -0.0000
vn 0.9810 0.1938 -0.0000
vn 0.9980 0.0627 -0.0000
vn -0.9980 0.0627 -0.0000
vn -0.9810 0.1938 -0.0000
vn -0.9391 0.3438 -0.0000
vn -0.8492 0.5281 -0.0000
vn -0.8494 0.5277 -0.0000
vn -0.6557 0.7550 -0.0000
vn -0.2662 0.9639 -0.0000
vn -0.2662 -0.9639 -0.0000
vn -0.6557 -0.7550 -0.0000
vn -0.8494 -0.5277 -0.0000
vn -0.8492 -0.5281 -0.0000
vn -0.9391 -0.3438 -0.0000
vn -0.9810 -0.1938 -0.0000
vn -0.9980 -0.0627 -0.0000
vn -0.0000 -0.0000 -1.0000
vn -0.0000 -0.0000 1.0000
vn 0.6631 0.7485 -0.0000
vn 0.6631 0.7486 -0.0000
vn -0.0020 0.0191 -0.9998
vn 0.1059 0.9944 -0.0000
vn -0.4998 0.8661 -0.0000
vn -0.4995 0.8663 -0.0000
vn 0.3107 0.9505 -0.0000
vn 0.3110 0.9504 -0.0000
vn 0.8961 0.4438 -0.0000
vn -0.6630 0.7486 -0.0000
vn 0.4999 0.8661 -0.0000
vn 0.4998 0.8661 -0.0000
vn 0.9627 0.2707 -0.0000
vn 0.9628 0.2702 -0.0000
vn -0.7963 0.6049 -0.0000
vn 0.9958 0.0910 -0.0000
vn 0.9958 0.0912 -0.0000
vn -0.8962 0.4437 -0.0000
vn -0.8961 0.4438 -0.0000
vn -0.8962 0.4436 -0.0000
vn 0.7961 0.6052 -0.0000
vn 0.7963 0.6049 -0.0000
vn 0.9958 -0.0912 -0.0000
vn 0.9958 -0.0910 -0.0000
vn -0.9627 0.2706 -0.0000
vn -0.9627 0.2707 -0.0000
vn 0.8962 0.4436 -0.0000
vn 0.9627 -0.2705 -0.0000
vn -0.9959 0.0905 -0.0000
vn 0.9627 0.2706 -0.0000
vn 0.8962 -0.4436 -0.0000
vn 0.8961 -0.4438 -0.0000
vn -0.9959 -0.0906 -0.0000
vn 0.9959 0.0906 -0.0000
vn 0.7961 -0.6052 -0.0000
vn 0.7963 -0.6049 -0.0000
vn -0.9627 -0.2706 -0.0000
vn -0.9628 -0.2702 -0.0000
vn 0.9959 -0.0905 -0.0000
vn 0.6631 -0.7486 -0.0000
vn -0.8960 -0.4441 -0.0000
vn -0.8961 -0.4438 -0.0000
vn 0.9627 -0.2707 -0.0000
vn 0.9627 -0.2706 -0.0000
vn 0.4999 -0.8661 -0.0000
vn 0.4998 -0.8661 -0.0000
vn -0.7963 -0.6049 -0.0000
vn -0.7961 -0.6052 -0.0000
vn 0.3112 -0.9503 -0.0000
vn 0.3110 -0.9504 -0.0000
vn 0.3111 -0.9504 -0.0000
vn -0.6631 -0.7486 -0.0000
vn 0.1060 -0.9944 -0.0000
vn 0.1056 -0.9944 -0.0000
vn -0.4999 -0.8661 -0.0000
vn -0.1059 -0.9944 -0.0000
vn -0.3110 -0.9504 -0.0000
vn 0.4995 -0.8663 -0.0000
vn -0.3111 -0.9504 -0.0000
vn -0.3112 -0.9503 -0.0000
vn -0.1054 -0.9944 -0.0000
vn -0.1055 -0.9944 -0.0000
vn 0.3116 -0.9502 -0.0000
vn 0.1059 -0.9944 -0.0000
vn -0.1060 -0.9944 -0.0000
vn -0.1056 -0.9944 -0.0000
vn -0.7960 -0.6053 -0.0000
vn -0.3116 -0.9502 -0.0000
vn -0.8962 -0.4436 -0.0000
vn -0.4995 -0.8663 -0.0000
vn -0.9627 -0.2705 -0.0000
vn -0.9959 -0.0909 -0.0000
vn -0.9959 -0.0905 -0.0000
vn 0.8960 -0.4441 -0.0000
vn -0.9959 0.0909 -0.0000
vn 0.9628 -0.2702 -0.0000
vn -0.8962 -0.4437 -0.0000
vn 0.9958 -0.0911 -0.0000
vn -0.9627 -0.2707 -0.0000
vn -0.9958 -0.0912 -0.0000
vn -0.9958 -0.0910 -0.0000
vn -0.9958 0.0911 -0.0000
vn -0.6631 0.7485 -0.0000
vn 0.8962 0.4437 -0.0000
vn -0.4999 0.8661 -0.0000
vn 0.7960 0.6053 -0.0000
vn 0.6630 0.7486 -0.0000
vn -0.7961 0.6052 -0.0000
vn 0.4995 0.8663 -0.0000
vn -0.6631 0.7486 -0.0000
vn -0.1059 0.9944 -0.0000
vn -0.1055 0.9944 -0.0000
vn 0.3116 0.9502 -0.0000
vn -0.5000 0.8660 -0.0000
vn 0.1056 0.9944 -0.0000
vn 0.1060 0.9944 -0.0000
vn -0.3107 0.9505 -0.0000
vn -0.3110 0.9504 -0.0000
vn -0.3116 0.9502 -0.0000
vn -0.1056 0.9944 -0.0000
vn -0.1057 0.9944 -0.0000
vn 0.1057 0.9944 -0.0000
vn -0.0020 0.0188 -0.9998
vn -0.1001 0.9417 -0.3213
vn -0.1001 0.9418 -0.3210
vn 0.8962 -0.4437 -0.0000
vn 0.7960 -0.6053 -0.0000
vn -0.4998 -0.8661 -0.0000
vn 0.5000 -0.8660 -0.0000
vn 0.9959 -0.0910 -0.0000
vn -0.9628 0.2702 -0.0000
vn 0.0020 -0.0190 0.9998
vn 0.1001 -0.9417 0.3212
vn 0.0020 -0.0188 0.9998
vt 0.625000 0.768872
vt 0.375000 0.768872
vt 0.375000 0.981128
vt 0.625000 0.518872
vt 0.375000 0.518872
vt 0.375000 0.731128
vt 0.625000 0.192331
vt 0.375000 0.192331
vt 0.375000 0.250000
vt 0.625000 0.018872
vt 0.375000 0.018872
vt 0.375000 0.231128
vt 0.625000 0.268872
vt 0.375000 0.268872
vt 0.375000 0.481128
vt 0.625000 0.981128
vt 0.375000 0.986013
vt 0.625000 0.986013
vt 0.375000 0.990564
vt 0.625000 0.990564
vt 0.375000 1.000000
vt 0.625000 0.000000
vt 0.375000 0.000000
vt 0.375000 0.009436
vt 0.625000 0.009436
vt 0.375000 0.013987
vt 0.625000 0.013987
vt 0.703671 0.342873
vt 0.296329 0.342873
vt 0.705188 0.340467
vt 0.294812 0.340467
vt 0.706491 0.335176
vt 0.293509 0.335176
vt 0.707491 0.330188
vt 0.292509 0.330188
vt 0.708119 0.328671
vt 0.291881 0.328671
vt 0.625000 0.231128
vt 0.625214 0.513987
vt 0.374786 0.513987
vt 0.625843 0.509436
vt 0.374157 0.509436
vt 0.626842 0.501842
vt 0.373158 0.501842
vt 0.628145 0.494552
vt 0.371855 0.494552
vt 0.629662 0.490889
vt 0.370338 0.490889
vt 0.625000 0.481128
vt 0.629663 0.759111
vt 0.370338 0.759111
vt 0.628145 0.755448
vt 0.371855 0.755448
vt 0.626842 0.748158
vt 0.373158 0.748158
vt 0.625843 0.740564
vt 0.374157 0.740564
vt 0.625214 0.736013
vt 0.374786 0.736013
vt 0.625000 0.731128
vt 0.356128 0.500000
vt 0.134436 0.747472
vt 0.625000 0.250000
vt 0.375000 0.500000
vt 0.625000 0.557669
vt 0.625000 0.500000
vt 0.625000 0.750000
vt 0.375000 0.750000
vt 0.375000 0.682669
vt 0.125001 0.682669
vt 0.125000 0.750000
vt 0.875000 0.682669
vt 0.625000 0.682669
vt 0.875000 0.500000
vt 0.875000 0.557669
vt 0.625000 0.620169
vt 0.125000 0.500000
vt 0.125001 0.557669
vt 0.125001 0.620169
vt 0.375000 0.620169
vt 0.375000 0.557669
vt 0.375000 0.067331
vt 0.625000 0.067331
vt 0.375000 0.129831
vt 0.625000 0.129831
vt 0.860465 0.747417
vt 0.855959 0.748007
vt 0.856128 0.750000
vt 0.864542 0.745729
vt 0.861013 0.749357
vt 0.865564 0.747472
vt 0.869473 0.744473
vt 0.870728 0.739541
vt 0.868042 0.743042
vt 0.872472 0.740564
vt 0.874357 0.736013
vt 0.872415 0.735463
vt 0.875000 0.731128
vt 0.731745 0.372813
vt 0.856128 0.500000
vt 0.713135 0.350087
vt 0.712937 0.344473
vt 0.715372 0.342297
vt 0.737567 0.365383
vt 0.841027 0.483773
vt 0.875000 0.518872
vt 0.626771 0.514219
vt 0.627312 0.509562
vt 0.628229 0.503229
vt 0.629548 0.497297
vt 0.632590 0.495142
vt 0.642394 0.500260
vt 0.643872 0.500000
vt 0.632603 0.754787
vt 0.643872 0.750000
vt 0.629559 0.752634
vt 0.628240 0.746704
vt 0.627322 0.740371
vt 0.626781 0.735713
vt 0.626675 0.731128
vt 0.873003 0.730956
vt 0.642408 0.749663
vt 0.626664 0.518798
vt 0.825294 0.470842
vt 0.906250 1.000000
vt 0.906250 0.500000
vt 0.580295 0.419706
vt 0.985389 0.296822
vt 0.841844 0.028269
vt 1.000000 1.000000
vt 1.000000 0.500000
vt 0.968750 0.500000
vt 0.093750 1.000000
vt 0.093750 0.500000
vt 0.062500 0.500000
vt 0.968750 1.000000
vt 0.937500 0.500000
vt 0.843750 1.000000
vt 0.843750 0.500000
vt 0.812500 0.500000
vt 0.125000 1.000000
vt 0.937500 1.000000
vt 0.812500 1.000000
vt 0.781250 0.500000
vt 0.156250 1.000000
vt 0.156250 0.500000
vt 0.781250 1.000000
vt 0.750000 0.500000
vt 0.187500 1.000000
vt 0.187500 0.500000
vt 0.875000 1.000000
vt 0.750000 1.000000
vt 0.718750 0.500000
vt 0.218750 1.000000
vt 0.218750 0.500000
vt 0.718750 1.000000
vt 0.687500 0.500000
vt 0.250000 1.000000
vt 0.250000 0.500000
vt 0.687500 1.000000
vt 0.656250 0.500000
vt 0.281250 1.000000
vt 0.281250 0.500000
vt 0.656250 1.000000
vt 0.312500 1.000000
vt 0.312500 0.500000
vt 0.625000 1.000000
vt 0.593750 0.500000
vt 0.343750 1.000000
vt 0.343750 0.500000
vt 0.593750 1.000000
vt 0.562500 0.500000
vt 0.562500 1.000000
vt 0.531250 0.500000
vt 0.406250 1.000000
vt 0.406250 0.500000
vt 0.531250 1.000000
vt 0.500000 0.500000
vt 0.437500 1.000000
vt 0.437500 0.500000
vt 0.500000 1.000000
vt 0.468750 0.500000
vt 0.468750 1.000000
vt 0.658156 0.028269
vt 0.841844 0.471731
vt 0.971731 0.158156
vt 0.031250 1.000000
vt 0.031250 0.500000
vt 0.000000 0.500000
vt 0.062500 1.000000
vt 0.125000 0.731128
vt 0.125000 0.518872
vt 0.143872 0.500000
vt 0.143872 0.750000
vt 0.356128 0.750000
vt 0.138987 0.749357
vt 0.127528 0.740564
vt 0.130527 0.744473
vt 0.125643 0.736013
vt 0.875000 0.750000
vt 0.875000 0.620169
vt 0.750000 0.490000
vt 0.796822 0.485388
vt 0.658156 0.471731
vt 0.703179 0.485388
vt 0.616664 0.449553
vt 0.528269 0.341844
vt 0.550448 0.383337
vt 0.510000 0.250000
vt 0.514612 0.296822
vt 0.528269 0.158156
vt 0.514612 0.203178
vt 0.580294 0.080294
vt 0.550447 0.116663
vt 0.616663 0.050447
vt 0.703178 0.014612
vt 0.796822 0.014612
vt 0.750000 0.010000
vt 0.883337 0.449553
vt 0.949553 0.383337
vt 0.919706 0.419706
vt 0.971731 0.341844
vt 0.985389 0.203178
vt 0.990000 0.250000
vt 0.949553 0.116663
vt 0.883337 0.050447
vt 0.919706 0.080294
vt 0.000000 1.000000
vt 0.296822 0.014612
vt 0.203179 0.485388
vt 0.014612 0.203178
vt 0.341844 0.028269
vt 0.296822 0.485388
vt 0.250000 0.490000
vt 0.383337 0.449553
vt 0.341844 0.471731
vt 0.449553 0.383337
vt 0.419706 0.419706
vt 0.485389 0.296822
vt 0.471731 0.341844
vt 0.485389 0.203178
vt 0.490000 0.250000
vt 0.449553 0.116663
vt 0.471731 0.158156
vt 0.383337 0.050447
vt 0.419706 0.080294
vt 0.203178 0.014612
vt 0.250000 0.010000
vt 0.116663 0.050447
vt 0.158156 0.028269
vt 0.050447 0.116663
vt 0.080294 0.080294
vt 0.028269 0.158156
vt 0.014612 0.296822
vt 0.010000 0.250000
vt 0.050448 0.383337
vt 0.028269 0.341844
vt 0.116664 0.449553
vt 0.080295 0.419706
vt 0.158156 0.471731
s 1
usemtl Metallic_phone.001
f 107/1/1 38/2/1 9/3/1
f 100/4/2 52/5/2 37/6/2
f 73/7/2 68/8/2 6/9/2
f 91/10/3 10/11/3 23/12/3
f 93/13/4 24/14/4 51/15/4
f 85/16/5 9/3/5 11/17/5
f 86/18/6 11/17/6 12/19/6
f 87/20/7 12/19/8 13/21/8
f 88/22/9 13/23/9 14/24/9
f 89/25/10 14/24/10 15/26/10
f 90/27/11 15/26/11 10/11/11
f 24/14/12 93/13/12 92/28/12
f 29/29/13 92/28/13 94/30/13
f 28/31/14 94/30/15 95/32/15
f 27/33/16 95/32/16 96/34/16
f 26/35/17 96/34/17 97/36/17
f 25/37/18 97/36/18 98/38/18
f 52/5/19 100/4/19 99/39/19
f 57/40/20 99/39/20 101/41/20
f 56/42/21 101/41/21 102/43/21
f 55/44/22 102/43/23 103/45/23
f 54/46/24 103/45/24 104/47/24
f 53/48/25 104/47/25 105/49/25
f 38/2/26 107/1/26 106/50/26
f 43/51/27 106/50/27 108/52/27
f 42/53/28 108/52/29 109/54/29
f 41/55/30 109/54/30 110/56/30
f 40/57/31 110/56/31 111/58/31
f 39/59/32 111/58/32 112/60/32
f 51/61/33 12/62/33 39/59/33
f 5/63/4 6/9/4 2/64/4
f 65/65/33 1/66/33 79/66/33
f 3/67/1 4/68/1 8/21/1
f 74/69/34 70/70/34 8/71/34
f 71/72/33 67/73/33 3/67/33
f 5/74/33 1/66/33 65/65/33
f 73/75/33 65/65/33 66/76/33
f 66/76/33 67/73/33 71/72/33
f 2/64/34 6/77/34 68/78/34
f 68/78/34 69/79/34 75/80/34
f 75/80/34 69/79/34 70/70/34
f 4/68/1 3/67/1 78/67/1
f 65/65/3 76/81/3 75/80/3
f 66/76/3 75/80/3 74/69/3
f 7/22/2 8/23/2 70/82/2
f 71/83/2 70/82/2 69/84/2
f 72/85/2 69/84/2 68/8/2
f 77/73/3 84/69/3 81/68/3
f 79/66/3 80/64/3 82/81/3
f 67/73/4 74/69/4 84/69/4
f 74/69/34 4/68/34 81/68/34
f 76/81/1 65/65/1 83/65/1
f 3/67/33 67/73/33 77/73/33
f 2/64/34 76/81/34 82/81/34
f 1/66/4 2/64/4 80/64/4
f 22/86/34 17/87/34 85/88/34
f 21/89/34 22/86/34 86/90/34
f 21/89/34 87/91/34 88/92/34
f 19/93/34 20/94/34 88/92/34
f 19/93/34 89/95/34 90/96/34
f 18/97/34 90/96/34 91/98/34
f 32/99/34 92/28/34 93/100/34
f 33/101/34 94/30/34 92/28/34
f 33/101/34 34/102/34 95/32/34
f 35/103/34 96/34/34 95/32/34
f 35/103/34 36/104/34 97/36/34
f 36/104/34 31/105/34 98/106/34
f 60/107/34 99/39/34 100/4/34
f 61/108/34 101/41/34 99/39/34
f 61/108/34 62/109/34 102/43/34
f 63/110/34 103/45/34 102/43/34
f 63/110/34 64/111/34 104/47/34
f 64/111/34 59/112/34 105/113/34
f 46/114/34 106/50/34 107/115/34
f 47/116/34 108/52/34 106/50/34
f 47/116/34 48/117/34 109/54/34
f 49/118/34 110/56/34 109/54/34
f 49/118/34 50/119/34 111/58/34
f 50/119/34 45/120/34 112/60/34
f 31/105/34 16/121/34 91/98/34
f 17/87/34 44/122/34 107/115/34
f 45/120/34 58/123/34 100/4/34
f 59/112/34 30/124/34 93/100/34
f 114/22/3 113/23/3 115/9/3
f 116/63/1 115/9/1 119/64/1
f 120/66/2 119/64/2 117/68/2
f 118/67/4 117/68/4 113/21/4
f 119/64/34 115/77/34 113/71/34
f 271/125/35 272/126/36 270/74/35
f 242/127/33 199/128/33 151/129/37
f 149/130/38 150/131/38 148/132/38
f 244/133/39 243/134/39 245/135/40
f 147/136/41 148/132/42 146/137/41
f 267/138/43 268/139/43 266/140/43
f 242/141/44 241/77/44 243/134/44
f 145/142/45 146/137/46 144/126/45
f 265/143/47 266/140/48 264/144/48
f 240/145/49 239/146/49 241/77/49
f 143/125/36 144/126/36 142/74/36
f 263/147/50 264/144/51 262/148/51
f 238/149/52 237/150/53 239/146/54
f 141/151/55 142/74/56 140/139/56
f 261/152/57 262/148/58 260/153/57
f 236/154/59 235/155/60 237/150/59
f 139/138/43 140/139/61 138/140/43
f 259/156/62 260/153/62 258/157/62
f 234/158/63 233/159/63 235/155/63
f 137/143/48 138/140/47 136/144/64
f 257/160/65 258/157/66 256/161/65
f 232/162/67 231/163/67 233/159/67
f 135/147/68 136/144/68 134/148/68
f 255/164/69 256/161/70 254/66/70
f 230/165/71 229/166/72 231/163/71
f 133/152/73 134/148/73 132/153/73
f 253/167/74 254/66/74 252/168/74
f 228/169/75 227/170/76 229/166/75
f 131/156/77 132/153/78 130/157/78
f 251/171/79 252/168/80 250/172/79
f 226/21/81 225/64/81 227/170/82
f 129/160/66 130/157/65 128/161/66
f 249/173/83 250/172/84 279/174/85
f 224/175/86 223/176/86 225/64/86
f 127/164/70 128/161/70 126/66/70
f 280/177/87 279/174/87 281/178/88
f 222/179/89 221/180/89 223/176/89
f 125/167/74 126/66/74 124/168/74
f 282/181/90 281/178/90 283/182/90
f 220/183/91 219/182/91 221/180/91
f 123/171/80 124/168/92 122/172/80
f 284/183/93 283/182/91 285/180/94
f 217/178/95 219/182/96 220/183/90
f 121/173/97 122/172/97 153/174/97
f 286/179/89 285/180/89 287/176/89
f 216/177/87 215/174/88 217/178/87
f 154/177/98 153/174/98 155/178/98
f 288/175/86 287/176/86 289/64/86
f 151/173/84 152/172/84 215/174/84
f 156/181/99 155/178/99 157/182/100
f 290/21/81 289/64/101 291/170/81
f 187/171/79 188/168/79 152/172/80
f 158/183/102 157/182/102 159/180/102
f 292/169/103 291/170/103 293/166/103
f 189/167/74 190/66/74 188/168/74
f 160/179/104 159/180/104 161/176/104
f 294/165/105 293/166/105 295/163/105
f 191/164/69 192/161/70 190/66/70
f 162/175/86 161/176/86 163/64/86
f 296/162/106 295/163/107 297/159/106
f 193/160/108 194/157/66 192/161/108
f 164/21/81 163/64/82 165/170/81
f 298/158/109 297/159/63 299/155/63
f 195/156/78 196/153/110 194/157/78
f 166/169/76 165/170/111 167/166/111
f 300/154/59 299/155/59 301/150/59
f 197/152/112 198/148/112 196/153/112
f 168/165/71 167/166/72 169/163/113
f 302/149/54 301/150/54 303/146/54
f 199/147/50 200/144/51 198/148/51
f 170/162/114 169/163/114 171/159/115
f 304/145/49 303/146/49 305/77/49
f 201/143/47 202/140/47 200/144/47
f 172/158/116 171/159/116 173/155/116
f 306/141/117 305/77/44 307/134/117
f 203/138/43 204/139/43 202/140/118
f 174/154/60 173/155/60 175/150/59
f 308/133/39 307/134/39 309/135/119
f 205/151/56 206/74/120 204/139/120
f 176/149/53 175/150/52 177/146/52
f 286/184/33 273/185/33 257/186/33
f 207/125/121 208/126/121 206/74/121
f 178/145/122 177/146/122 179/77/49
f 209/142/46 210/137/123 208/126/123
f 180/141/124 179/77/124 181/134/124
f 248/187/125 247/188/125 214/189/126
f 211/136/127 212/132/127 210/137/127
f 182/133/119 181/134/128 183/135/119
f 160/184/33 145/185/33 129/186/33
f 213/130/129 214/131/130 212/132/130
f 184/190/131 183/135/132 185/188/131
f 269/151/56 270/74/120 268/139/56
f 246/190/133 245/135/133 247/188/133
f 186/187/134 185/188/134 150/189/134
f 273/142/45 274/137/45 272/126/46
f 312/187/135 311/188/135 278/189/135
f 275/136/127 276/132/127 274/137/127
f 277/130/136 278/131/129 276/132/129
f 310/190/133 309/135/133 311/188/133
f 107/1/1 9/3/1 85/16/1
f 100/4/2 37/6/2 112/60/2
f 73/7/2 6/9/2 5/63/2
f 91/10/3 23/12/3 98/38/3
f 93/13/4 51/15/4 105/49/4
f 85/16/5 11/17/5 86/18/5
f 86/18/6 12/19/6 87/20/6
f 87/20/7 13/21/8 88/167/7
f 88/22/9 14/24/9 89/25/9
f 89/25/10 15/26/10 90/27/10
f 90/27/11 10/11/11 91/10/11
f 24/14/12 92/28/12 29/29/12
f 29/29/13 94/30/13 28/31/13
f 28/31/14 95/32/15 27/33/14
f 27/33/16 96/34/16 26/35/16
f 26/35/17 97/36/17 25/37/17
f 25/37/18 98/38/18 23/12/18
f 52/5/19 99/39/19 57/40/19
f 57/40/20 101/41/20 56/42/20
f 56/42/21 102/43/21 55/44/21
f 55/44/22 103/45/23 54/46/22
f 54/46/24 104/47/24 53/48/24
f 53/48/25 105/49/25 51/15/25
f 38/2/26 106/50/26 43/51/26
f 43/51/27 108/52/27 42/53/27
f 42/53/28 109/54/29 41/55/28
f 41/55/30 110/56/30 40/57/30
f 40/57/31 111/58/31 39/59/31
f 39/59/32 112/60/32 37/6/32
f 10/191/33 25/37/33 23/192/33
f 25/37/33 27/33/33 26/35/33
f 27/33/33 29/29/33 28/31/33
f 29/29/33 51/61/33 24/193/33
f 51/61/33 54/46/33 53/48/33
f 54/46/33 56/42/33 55/44/33
f 56/42/33 52/5/33 57/40/33
f 52/5/33 39/59/33 37/6/33
f 39/59/33 41/55/33 40/57/33
f 41/55/33 43/51/33 42/53/33
f 43/51/33 9/194/33 38/195/33
f 9/194/33 12/62/33 11/196/33
f 12/62/33 14/197/33 13/198/33
f 14/197/33 10/191/33 15/199/33
f 10/191/33 27/33/33 25/37/33
f 27/33/33 51/61/33 29/29/33
f 51/61/33 56/42/33 54/46/33
f 56/42/33 39/59/33 52/5/33
f 39/59/33 43/51/33 41/55/33
f 43/51/33 12/62/33 9/194/33
f 12/62/33 10/191/33 14/197/33
f 10/191/33 51/61/33 27/33/33
f 51/61/33 39/59/33 56/42/33
f 39/59/33 12/62/33 43/51/33
f 12/62/33 51/61/33 10/191/33
f 5/63/4 2/64/4 1/66/4
f 65/65/33 79/66/33 83/65/33
f 3/67/1 8/21/1 7/167/1
f 74/69/34 8/71/34 4/68/34
f 71/72/33 3/67/33 7/200/33
f 5/74/33 65/65/33 73/75/33
f 73/75/33 66/76/33 72/201/33
f 66/76/33 71/72/33 72/201/33
f 2/64/34 68/78/34 76/81/34
f 68/78/34 75/80/34 76/81/34
f 75/80/34 70/70/34 74/69/34
f 4/68/1 78/67/1 81/68/1
f 65/65/3 75/80/3 66/76/3
f 66/76/3 74/69/3 67/73/3
f 7/22/2 70/82/2 71/83/2
f 71/83/2 69/84/2 72/85/2
f 72/85/2 68/8/2 73/7/2
f 77/73/3 81/68/3 78/67/3
f 79/66/3 82/81/3 83/65/3
f 67/73/4 84/69/4 77/73/4
f 74/69/34 81/68/34 84/69/34
f 76/81/1 83/65/1 82/81/1
f 3/67/33 77/73/33 78/67/33
f 2/64/34 82/81/34 80/64/34
f 1/66/4 80/64/4 79/66/4
f 22/86/34 85/88/34 86/90/34
f 21/89/34 86/90/34 87/91/34
f 21/89/34 88/92/34 20/94/34
f 19/93/34 88/92/34 89/95/34
f 19/93/34 90/96/34 18/97/34
f 18/97/34 91/98/34 16/121/34
f 32/99/34 93/100/34 30/124/34
f 33/101/34 92/28/34 32/99/34
f 33/101/34 95/32/34 94/30/34
f 35/103/34 95/32/34 34/102/34
f 35/103/34 97/36/34 96/34/34
f 36/104/34 98/106/34 97/36/34
f 60/107/34 100/4/34 58/123/34
f 61/108/34 99/39/34 60/107/34
f 61/108/34 102/43/34 101/41/34
f 63/110/34 102/43/34 62/109/34
f 63/110/34 104/47/34 103/45/34
f 64/111/34 105/113/34 104/47/34
f 46/114/34 107/115/34 44/122/34
f 47/116/34 106/50/34 46/114/34
f 47/116/34 109/54/34 108/52/34
f 49/118/34 109/54/34 48/117/34
f 49/118/34 111/58/34 110/56/34
f 50/119/34 112/60/34 111/58/34
f 31/105/34 91/98/34 98/106/34
f 17/87/34 107/115/34 85/88/34
f 45/120/34 100/4/34 112/60/34
f 59/112/34 93/100/34 105/113/34
f 114/22/3 115/9/3 116/63/3
f 116/63/1 119/64/1 120/66/1
f 120/66/2 117/68/2 118/67/2
f 118/67/4 113/21/4 114/167/4
f 119/64/34 113/71/34 117/68/34
f 271/125/35 270/74/35 269/151/121
f 209/185/33 213/202/33 211/203/33
f 213/202/33 246/204/33 248/205/33
f 246/204/33 242/127/33 244/206/33
f 242/127/33 238/207/33 240/208/33
f 238/207/33 234/209/33 236/210/33
f 234/209/33 230/211/33 232/212/33
f 230/211/33 226/213/33 228/214/33
f 226/213/33 222/184/33 224/215/33
f 220/216/137 216/217/138 218/218/139
f 226/213/33 220/216/137 222/184/33
f 234/209/33 226/213/33 230/211/33
f 242/127/33 234/209/33 238/207/33
f 213/202/33 242/127/33 246/204/33
f 207/219/33 213/202/33 209/185/33
f 203/220/33 207/219/33 205/221/33
f 199/128/33 203/220/33 201/222/33
f 195/223/33 199/128/33 197/224/33
f 191/225/33 195/223/33 193/186/33
f 187/226/33 191/225/33 189/227/33
f 220/216/137 151/129/37 216/217/138
f 151/129/37 191/225/33 187/226/33
f 191/225/33 199/128/33 195/223/33
f 199/128/33 207/219/33 203/220/33
f 207/219/33 242/127/33 213/202/33
f 242/127/33 226/213/33 234/209/33
f 226/213/33 151/129/37 220/216/137
f 151/129/37 199/128/33 191/225/33
f 199/128/33 242/127/33 207/219/33
f 242/127/33 151/129/37 226/213/33
f 149/130/38 148/132/38 147/136/38
f 244/133/39 245/135/40 246/190/40
f 147/136/41 146/137/41 145/142/42
f 267/138/43 266/140/43 265/143/43
f 242/141/44 243/134/44 244/133/44
f 145/142/45 144/126/45 143/125/45
f 265/143/47 264/144/48 263/147/64
f 240/145/49 241/77/49 242/141/49
f 143/125/36 142/74/36 141/151/36
f 263/147/50 262/148/51 261/152/50
f 238/149/52 239/146/54 240/145/53
f 141/151/55 140/139/56 139/138/120
f 261/152/57 260/153/57 259/156/58
f 236/154/59 237/150/59 238/149/60
f 139/138/43 138/140/43 137/143/118
f 259/156/62 258/157/62 257/160/62
f 234/158/63 235/155/63 236/154/63
f 137/143/48 136/144/64 135/147/64
f 257/160/65 256/161/65 255/164/65
f 232/162/67 233/159/67 234/158/67
f 135/147/68 134/148/68 133/152/68
f 255/164/69 254/66/70 253/167/70
f 230/165/71 231/163/71 232/162/72
f 133/152/73 132/153/73 131/156/73
f 253/167/74 252/168/74 251/171/74
f 228/169/75 229/166/75 230/165/76
f 131/156/77 130/157/78 129/160/78
f 251/171/79 250/172/79 249/173/79
f 226/21/81 227/170/82 228/169/82
f 129/160/66 128/161/66 127/164/140
f 249/173/83 279/174/85 280/177/84
f 224/175/86 225/64/86 226/21/86
f 127/164/70 126/66/70 125/167/141
f 280/177/87 281/178/88 282/181/88
f 222/179/89 223/176/89 224/175/89
f 125/167/74 124/168/74 123/171/74
f 282/181/90 283/182/90 284/183/90
f 220/183/91 221/180/91 222/179/94
f 123/171/80 122/172/80 121/173/80
f 284/183/93 285/180/94 286/179/91
f 217/178/95 220/183/90 218/181/90
f 121/173/97 153/174/97 154/177/97
f 286/179/89 287/176/89 288/175/142
f 216/177/87 217/178/87 218/181/88
f 154/177/98 155/178/98 156/181/98
f 288/175/86 289/64/86 290/21/86
f 151/173/84 215/174/84 216/177/84
f 156/181/99 157/182/100 158/183/100
f 290/21/81 291/170/81 292/169/81
f 187/171/79 152/172/80 151/173/143
f 158/183/102 159/180/102 160/179/102
f 292/169/103 293/166/103 294/165/103
f 189/167/74 188/168/74 187/171/74
f 160/179/104 161/176/104 162/175/104
f 294/165/105 295/163/105 296/162/105
f 191/164/69 190/66/70 189/167/70
f 162/175/86 163/64/86 164/21/86
f 296/162/106 297/159/106 298/158/107
f 193/160/108 192/161/108 191/164/66
f 164/21/81 165/170/81 166/169/81
f 298/158/109 299/155/63 300/154/63
f 195/156/78 194/157/78 193/160/78
f 166/169/76 167/166/111 168/165/76
f 300/154/59 301/150/59 302/149/59
f 197/152/112 196/153/112 195/156/144
f 168/165/71 169/163/113 170/162/113
f 302/149/54 303/146/54 304/145/54
f 199/147/50 198/148/51 197/152/51
f 170/162/114 171/159/115 172/158/115
f 304/145/49 305/77/49 306/141/49
f 201/143/47 200/144/47 199/147/64
f 172/158/116 173/155/116 174/154/116
f 306/141/117 307/134/117 308/133/117
f 203/138/43 202/140/118 201/143/118
f 174/154/60 175/150/59 176/149/145
f 308/133/39 309/135/119 310/190/119
f 205/151/56 204/139/120 203/138/56
f 176/149/53 177/146/52 178/145/53
f 273/185/33 277/202/33 275/203/33
f 277/202/33 310/204/33 312/205/33
f 310/204/33 306/127/33 308/206/33
f 306/127/33 302/207/33 304/208/33
f 302/207/33 298/209/33 300/210/33
f 298/209/33 294/211/33 296/212/33
f 294/211/33 290/213/33 292/214/33
f 290/213/33 286/184/33 288/215/33
f 286/184/33 282/218/33 284/216/33
f 282/218/33 249/129/33 280/217/33
f 249/129/33 253/227/33 251/226/33
f 253/227/33 257/186/33 255/225/33
f 257/186/33 261/224/33 259/223/33
f 261/224/33 265/222/33 263/128/33
f 265/222/33 269/221/33 267/220/33
f 269/221/33 273/185/33 271/219/33
f 273/185/33 310/204/33 277/202/33
f 310/204/33 302/207/33 306/127/33
f 302/207/33 294/211/33 298/209/33
f 294/211/33 286/184/33 290/213/33
f 286/184/33 249/129/33 282/218/33
f 249/129/33 257/186/33 253/227/33
f 257/186/33 265/222/33 261/224/33
f 265/222/33 273/185/33 269/221/33
f 273/185/33 302/207/33 310/204/33
f 302/207/33 286/184/33 294/211/33
f 286/184/33 257/186/33 249/129/33
f 257/186/33 273/185/33 265/222/33
f 273/185/33 286/184/33 302/207/33
f 207/125/121 206/74/121 205/151/121
f 178/145/122 179/77/49 180/141/122
f 209/142/46 208/126/123 207/125/123
f 180/141/124 181/134/124 182/133/124
f 248/187/125 214/189/126 213/228/125
f 211/136/127 210/137/127 209/142/127
f 182/133/119 183/135/119 184/190/119
f 145/185/33 149/202/33 147/203/33
f 149/202/33 184/204/33 186/205/33
f 184/204/33 180/127/33 182/206/33
f 180/127/33 176/207/33 178/208/33
f 176/207/33 172/209/33 174/210/33
f 172/209/33 168/211/33 170/212/33
f 168/211/33 164/213/33 166/214/33
f 164/213/33 160/184/33 162/215/33
f 160/184/33 156/218/33 158/216/33
f 156/218/33 121/129/33 154/217/33
f 121/129/33 125/227/33 123/226/33
f 125/227/33 129/186/33 127/225/33
f 129/186/33 133/224/33 131/223/33
f 133/224/33 137/222/33 135/128/33
f 137/222/33 141/221/33 139/220/33
f 141/221/33 145/185/33 143/219/33
f 145/185/33 184/204/33 149/202/33
f 184/204/33 176/207/33 180/127/33
f 176/207/33 168/211/33 172/209/33
f 168/211/33 160/184/33 164/213/33
f 160/184/33 121/129/33 156/218/33
f 121/129/33 129/186/33 125/227/33
f 129/186/33 137/222/33 133/224/33
f 137/222/33 145/185/33 141/221/33
f 145/185/33 176/207/33 184/204/33
f 176/207/33 160/184/33 168/211/33
f 160/184/33 129/186/33 121/129/33
f 129/186/33 145/185/33 137/222/33
f 145/185/33 160/184/33 176/207/33
f 213/130/129 212/132/130 211/136/130
f 184/190/131 185/188/131 186/187/132
f 269/151/56 268/139/56 267/138/56
f 246/190/133 247/188/133 248/187/133
f 186/187/134 150/189/134 149/228/134
f 273/142/45 272/126/46 271/125/46
f 312/187/135 278/189/135 277/228/135
f 275/136/127 274/137/127 273/142/127
f 277/130/136 276/132/129 275/136/136
f 310/190/133 311/188/133 312/187/133
usemtl Screen.001
f 30/124/34 47/116/34 18/97/34
f 45/120/34 60/107/34 58/123/34
f 60/107/34 62/109/34 61/108/34
f 62/109/34 64/111/34 63/110/34
f 64/111/34 30/124/34 59/112/34
f 30/124/34 33/101/34 32/99/34
f 33/101/34 35/103/34 34/102/34
f 35/103/34 31/105/34 36/104/34
f 31/105/34 18/97/34 16/121/34
f 18/97/34 20/94/34 19/93/34
f 20/94/34 22/86/34 21/89/34
f 22/86/34 44/122/34 17/87/34
f 44/122/34 47/116/34 46/114/34
f 47/116/34 49/118/34 48/117/34
f 49/118/34 45/120/34 50/119/34
f 45/120/34 62/109/34 60/107/34
f 62/109/34 30/124/34 64/111/34
f 30/124/34 35/103/34 33/101/34
f 35/103/34 18/97/34 31/105/34
f 18/97/34 22/86/34 20/94/34
f 22/86/34 47/116/34 44/122/34
f 47/116/34 45/120/34 49/118/34
f 45/120/34 30/124/34 62/109/34
f 30/124/34 18/97/34 35/103/34
f 18/97/34 47/116/34 22/86/34
f 47/116/34 30/124/34 45/120/34
usemtl Camera.001
f 116/74/33 120/66/33 118/67/33
f 279/229/34 311/230/34 295/231/34
f 152/232/146 247/230/34 231/231/34
f 153/229/34 185/230/34 169/231/34
f 116/74/33 118/67/33 114/200/33
f 311/230/34 276/233/34 278/234/34
f 276/233/34 272/235/34 274/236/34
f 272/235/34 268/237/34 270/238/34
f 268/237/34 264/239/34 266/240/34
f 264/239/34 260/241/34 262/242/34
f 260/241/34 256/243/34 258/244/34
f 256/243/34 252/245/34 254/246/34
f 252/245/34 279/229/34 250/232/34
f 279/229/34 283/247/34 281/248/34
f 283/247/34 287/249/34 285/250/34
f 287/249/34 291/251/34 289/252/34
f 291/251/34 295/231/34 293/253/34
f 295/231/34 299/254/34 297/255/34
f 299/254/34 303/256/34 301/257/34
f 303/256/34 307/258/34 305/259/34
f 307/258/34 311/230/34 309/260/34
f 311/230/34 272/235/34 276/233/34
f 272/235/34 264/239/34 268/237/34
f 264/239/34 256/243/34 260/241/34
f 256/243/34 279/229/34 252/245/34
f 279/229/34 287/249/34 283/247/34
f 287/249/34 295/231/34 291/251/34
f 295/231/34 303/256/34 299/254/34
f 303/256/34 311/230/34 307/258/34
f 311/230/34 264/239/34 272/235/34
f 264/239/34 279/229/34 256/243/34
f 279/229/34 295/231/34 287/249/34
f 295/231/34 311/230/34 303/256/34
f 311/230/34 279/229/34 264/239/34
f 247/230/34 212/233/34 214/234/34
f 212/233/34 208/235/34 210/236/34
f 208/235/34 204/237/34 206/238/34
f 204/237/34 200/239/34 202/240/34
f 200/239/34 196/241/34 198/242/34
f 196/241/34 192/243/34 194/244/34
f 192/243/34 188/245/34 190/246/34
f 152/232/146 217/248/147 215/229/147
f 192/243/34 152/232/146 188/245/34
f 200/239/34 192/243/34 196/241/34
f 208/235/34 200/239/34 204/237/34
f 247/230/34 208/235/34 212/233/34
f 243/258/34 247/230/34 245/260/34
f 239/256/34 243/258/34 241/259/34
f 235/254/34 239/256/34 237/257/34
f 231/231/34 235/254/34 233/255/34
f 227/251/34 231/231/34 229/253/34
f 223/249/34 227/251/34 225/252/34
f 219/247/148 223/249/34 221/250/34
f 152/232/146 219/247/148 217/248/147
f 200/239/34 152/232/146 192/243/34
f 247/230/34 200/239/34 208/235/34
f 239/256/34 247/230/34 243/258/34
f 231/231/34 239/256/34 235/254/34
f 223/249/34 231/231/34 227/251/34
f 152/232/146 223/249/34 219/247/148
f 247/230/34 152/232/146 200/239/34
f 231/231/34 247/230/34 239/256/34
f 152/232/146 231/231/34 223/249/34
f 185/230/34 148/233/34 150/234/34
f 148/233/34 144/235/34 146/236/34
f 144/235/34 140/237/34 142/238/34
f 140/237/34 136/239/34 138/240/34
f 136/239/34 132/241/34 134/242/34
f 132/241/34 128/243/34 130/244/34
f 128/243/34 124/245/34 126/246/34
f 124/245/34 153/229/34 122/232/34
f 153/229/34 157/247/34 155/248/34
f 157/247/34 161/249/34 159/250/34
f 161/249/34 165/251/34 163/252/34
f 165/251/34 169/231/34 167/253/34
f 169/231/34 173/254/34 171/255/34
f 173/254/34 177/256/34 175/257/34
f 177/256/34 181/258/34 179/259/34
f 181/258/34 185/230/34 183/260/34
f 185/230/34 144/235/34 148/233/34
f 144/235/34 136/239/34 140/237/34
f 136/239/34 128/243/34 132/241/34
f 128/243/34 153/229/34 124/245/34
f 153/229/34 161/249/34 157/247/34
f 161/249/34 169/231/34 165/251/34
f 169/231/34 177/256/34 173/254/34
f 177/256/34 185/230/34 181/258/34
f 185/230/34 136/239/34 144/235/34
f 136/239/34 153/229/34 128/243/34
f 153/229/34 169/231/34 161/249/34
f 169/231/34 185/230/34 177/256/34
f 185/230/34 153/229/34 136/239/34
