# Blender 4.5.4 LTS
# www.blender.org
mtllib tv.mtl
o TV_49Zoll
v -0.227942 -0.412444 0.017022
v -0.227942 -0.419944 0.017022
v 0.252058 -0.412444 0.017022
v 0.252058 -0.419944 0.017022
v -0.239942 -0.412444 0.017022
v -0.239942 -0.419944 0.017022
v -0.227942 0.412557 0.017022
v -0.239942 0.412557 0.017022
v -0.227942 0.420057 0.017022
v -0.239942 0.420057 0.017022
v 0.244558 0.412557 0.017022
v 0.244558 0.420057 0.017022
v 0.252058 0.412557 0.017022
v 0.252058 0.420057 0.017022
v 0.244558 -0.412444 0.017022
v 0.252058 -0.412444 0.017022
v 0.252058 -0.412444 0.008772
v -0.227942 -0.412444 0.008772
v -0.227942 -0.419944 0.008772
v 0.252058 -0.419944 0.008772
v -0.239942 -0.412444 0.008772
v -0.239942 -0.419944 0.008772
v -0.227942 0.412557 0.008772
v -0.239942 0.412557 0.008772
v -0.227942 0.420057 0.008772
v -0.239942 0.420057 0.008772
v 0.244558 0.412557 0.008772
v 0.244558 0.420057 0.008772
v 0.252058 0.412557 0.008772
v 0.252058 0.420057 0.008772
v 0.244558 -0.412444 0.008772
v 0.252058 -0.412444 0.008772
v -0.208277 -0.259120 -0.030548
v -0.227942 -0.297302 -0.025101
v -0.214353 -0.266104 -0.030282
v -0.219835 -0.274216 -0.029508
v -0.224186 -0.282663 -0.028303
v -0.226979 -0.290617 -0.026784
v -0.227942 0.297415 -0.025101
v -0.208277 0.259233 -0.030548
v -0.226979 0.290730 -0.026784
v -0.224186 0.282776 -0.028303
v -0.219835 0.274329 -0.029508
v -0.214353 0.266217 -0.030282
v 0.099900 0.297247 -0.025151
v 0.057217 0.259233 -0.030548
v 0.091824 0.290614 -0.026819
v 0.082615 0.282706 -0.028323
v 0.073172 0.274297 -0.029517
v 0.064420 0.266208 -0.030284
v 0.099900 -0.297134 -0.025151
v 0.057217 -0.259120 -0.030548
v 0.091824 -0.290501 -0.026819
v 0.082615 -0.282593 -0.028323
v 0.073172 -0.274184 -0.029517
v 0.064420 -0.266095 -0.030284
v -0.240708 0.013488 0.017022
v -0.240708 -0.013375 0.017022
v -0.227942 -0.014142 0.017022
v -0.227942 0.014254 0.017022
v -0.239942 0.014254 0.008772
v -0.239942 -0.014142 0.008772
v -0.239942 -0.412444 0.012897
v -0.239942 0.412557 0.012897
v 0.252058 0.420057 0.012897
v 0.252058 0.412557 0.012897
v -0.227942 0.412557 0.012897
v -0.227942 -0.412444 0.012897
v 0.252058 -0.419944 0.012897
v -0.227942 -0.419944 0.012897
v 0.244558 0.420057 0.012897
v -0.239942 0.420057 0.012897
v -0.227942 0.420057 0.012897
v 0.252058 -0.412444 0.012897
v -0.239942 -0.419944 0.012897
v 0.252058 -0.412444 0.012897
v 0.244558 -0.412444 0.012897
v 0.244558 0.412557 0.012897
v -0.239942 0.014254 0.012897
v -0.239942 -0.014142 0.012897
v -0.243054 0.013488 0.017022
v -0.243054 -0.013375 0.017022
v -0.241773 0.014254 0.012897
v -0.241773 -0.014142 0.012897
v -0.239942 0.014254 0.017022
v -0.239942 -0.014142 0.017022
v -0.243820 0.014254 0.017022
v -0.243820 -0.014142 0.017022
v -0.240708 0.013488 0.016852
v -0.240708 -0.013375 0.016852
v -0.243054 0.013488 0.016852
v -0.243054 -0.013375 0.016852
v -0.227942 0.412557 0.016272
v -0.227942 -0.412443 0.016272
v 0.244558 0.412557 0.016272
v 0.244558 -0.412443 0.016272
vn -0.0000 -0.0000 -1.0000
vn -0.0000 -0.0000 1.0000
vn 1.0000 -0.0000 -0.0000
vn -1.0000 -0.0000 -0.0000
vn -0.0000 1.0000 -0.0000
vn -0.0000 -1.0000 -0.0000
vn -0.0000 0.2822 -0.9593
vn -0.0000 -0.2822 -0.9593
vn 0.2283 -0.0000 -0.9736
vn -0.8681 -0.0000 -0.4964
vn -0.4776 -0.0000 -0.8786
vn -0.2669 -0.0000 -0.9637
vn -0.1398 -0.0000 -0.9902
vn -0.0438 -0.0000 -0.9990
vn -0.0000 0.2442 -0.9697
vn -0.0000 0.2439 -0.9698
vn -0.0000 0.1875 -0.9823
vn -0.0000 0.1870 -0.9824
vn -0.0000 0.1412 -0.9900
vn -0.0000 0.1406 -0.9901
vn -0.0000 0.0949 -0.9955
vn -0.0000 0.0944 -0.9955
vn -0.0000 0.0381 -0.9993
vn -0.0000 0.0379 -0.9993
vn 0.2023 -0.0000 -0.9793
vn 0.1612 -0.0000 -0.9869
vn 0.1255 -0.0000 -0.9921
vn 0.0873 -0.0000 -0.9962
vn 0.0366 -0.0000 -0.9993
vn 0.0367 -0.0000 -0.9993
vn -0.0000 -0.0379 -0.9993
vn -0.0000 -0.0381 -0.9993
vn -0.0000 -0.0382 -0.9993
vn -0.0000 -0.0944 -0.9955
vn -0.0000 -0.0949 -0.9955
vn -0.0000 -0.1406 -0.9901
vn -0.0000 -0.1412 -0.9900
vn -0.0000 -0.1870 -0.9824
vn -0.0000 -0.1875 -0.9823
vn -0.0000 -0.2439 -0.9698
vn -0.0000 -0.2442 -0.9697
vn 0.8957 -0.0000 0.4446
vn -1.0000 -0.0000 0.0001
vt 0.000000 0.320000
vt 0.005000 0.000000
vt 0.000000 0.000000
vt 0.005000 -0.008000
vt -0.550000 -0.008000
vt -0.284465 0.000000
vt -0.284465 -0.008000
vt -0.555000 -0.008000
vt -0.550000 0.000000
vt -0.555000 0.315001
vt -0.555000 0.000000
vt -0.555000 0.320001
vt -0.549999 0.315001
vt 0.000118 0.319998
vt -0.549999 0.320001
vt -0.284465 -0.008000
vt -0.000000 -0.008000
vt -0.265534 -0.008000
vt -0.265534 -0.008000
vt -0.555000 0.320001
vt 0.005000 0.320000
vt 0.005000 0.000000
vt -0.555000 0.315001
vt 0.000000 0.320000
vt -0.550000 -0.008000
vt 0.005000 -0.008000
vt 0.000118 0.319998
vt 0.000118 0.314999
vt 0.000118 0.314999
vt -0.549999 0.218562
vt -0.550000 0.000000
vt 0.000082 0.218560
vt -0.473239 0.000000
vt -0.076761 0.000000
vt -0.473110 0.315001
vt -0.081217 0.000000
vt -0.468782 0.000000
vt -0.086521 0.000000
vt -0.463479 0.000000
vt -0.092150 0.005404
vt -0.457847 0.005404
vt -0.097557 0.009059
vt -0.452439 0.009059
vt -0.102212 0.013110
vt -0.549999 0.213178
vt -0.550000 0.000642
vt -0.549999 0.203216
vt -0.550000 0.002504
vt -0.460894 0.002504
vt -0.457814 0.200743
vt -0.452421 0.194908
vt -0.447771 0.190106
vt -0.447783 0.013110
vt -0.076771 0.314999
vt -0.468687 0.315001
vt -0.081194 0.314999
vt -0.460875 0.315001
vt -0.089041 0.203215
vt -0.460882 0.203216
vt -0.092110 0.200742
vt -0.097505 0.194907
vt -0.102157 0.190105
vt -0.089104 0.002504
vt 0.000076 0.203215
vt 0.000000 0.000642
vt 0.000001 0.002504
vt 0.000080 0.213176
vt 0.000000 0.000000
vt -0.284465 -0.008000
vt -0.265534 -0.008000
vt -0.265535 0.000000
vt -0.284465 -0.008000
vt -0.284465 0.000000
vt -0.283954 -0.008511
vt -0.283954 -0.010075
vt -0.266045 -0.008511
vt -0.266045 -0.010075
vt -0.284465 -0.010586
vt -0.265534 -0.010586
vt 0.550000 0.000000
vt 0.000000 0.315000
vt -0.089006 0.314999
vt -0.265534 0.000000
vt 0.550000 0.315000
s 1
usemtl Black
f 3/1/1 2/2/1 1/3/1
f 6/4/1 1/3/1 2/2/1
f 8/5/1 60/6/1 85/7/1
f 10/8/1 7/9/1 8/5/1
f 12/10/1 7/9/1 9/11/1
f 14/12/1 11/13/1 12/10/1
f 16/14/1 11/13/1 13/15/1
f 19/2/2 17/1/2 18/3/2
f 18/3/2 22/4/2 19/2/2
f 18/3/2 24/5/2 61/16/2
f 23/9/2 26/8/2 24/5/2
f 23/9/2 28/10/2 25/11/2
f 27/13/2 30/12/2 28/10/2
f 27/13/2 32/14/2 29/15/2
f 63/17/3 62/18/3 80/19/3
f 65/20/4 29/15/4 66/15/4
f 67/9/4 18/3/4 68/3/4
f 69/21/5 19/2/5 70/22/5
f 71/23/6 30/12/6 65/20/6
f 72/8/6 25/11/6 73/11/6
f 74/24/4 20/21/4 69/21/4
f 64/25/3 26/8/3 72/8/3
f 75/26/3 21/17/3 63/17/3
f 76/27/5 31/28/5 77/29/5
f 70/22/5 22/4/5 75/26/5
f 66/15/4 32/14/4 76/27/4
f 77/29/3 27/13/3 78/13/3
f 73/11/6 28/10/6 71/23/6
f 68/3/6 17/1/6 74/24/6
f 78/13/5 23/9/5 67/9/5
f 23/9/7 45/30/7 39/31/7
f 18/3/8 51/32/8 31/28/8
f 18/3/4 39/33/4 34/34/4
f 31/28/9 45/35/9 27/13/9
f 39/33/10 38/36/10 34/34/10
f 41/37/11 37/38/11 38/36/11
f 42/39/12 36/40/12 37/38/12
f 43/41/13 35/42/13 36/40/13
f 44/43/14 33/44/14 35/42/14
f 39/31/15 47/45/16 41/46/15
f 41/46/17 48/47/18 42/48/17
f 42/49/19 49/50/20 43/41/19
f 43/41/21 50/51/22 44/43/21
f 44/43/23 46/52/24 40/53/23
f 51/54/25 47/55/25 45/35/25
f 53/56/26 48/57/26 47/55/26
f 54/58/27 49/50/27 48/59/27
f 55/60/28 50/51/28 49/50/28
f 56/61/29 46/52/30 50/51/30
f 52/62/31 35/42/32 33/44/33
f 56/61/34 36/40/35 35/42/35
f 55/60/36 37/63/37 36/40/37
f 54/64/38 38/65/39 37/66/39
f 53/67/40 34/68/41 38/65/41
f 40/53/1 52/62/1 33/44/1
f 79/69/3 24/5/3 64/25/3
f 80/19/3 61/16/3 79/69/3
f 86/70/1 1/3/1 5/17/1
f 85/16/1 59/71/1 86/18/1
f 79/69/2 84/19/2 80/19/2
f 85/72/3 64/25/3 8/5/3
f 11/13/5 67/9/5 7/9/5
f 1/3/6 74/24/6 3/1/6
f 9/11/6 71/23/6 12/10/6
f 15/28/3 78/13/3 11/13/3
f 13/15/4 76/27/4 16/14/4
f 2/2/5 75/26/5 6/4/5
f 16/14/5 77/29/5 15/28/5
f 6/4/3 63/17/3 5/17/3
f 8/5/3 72/8/3 10/8/3
f 3/1/4 69/21/4 4/21/4
f 10/8/6 73/11/6 9/11/6
f 12/10/6 65/20/6 14/12/6
f 4/21/5 70/22/5 2/2/5
f 60/73/4 67/9/4 68/3/4
f 14/12/4 66/15/4 13/15/4
f 5/17/3 80/19/3 86/18/3
f 88/18/42 83/69/42 87/16/42
f 85/72/6 83/69/6 79/69/6
f 86/18/5 84/19/5 88/18/5
f 57/74/5 91/75/5 81/75/5
f 57/74/1 86/18/1 58/76/1
f 82/77/1 87/78/1 81/75/1
f 81/75/1 85/16/1 57/74/1
f 58/76/1 88/79/1 82/77/1
f 58/76/3 89/74/3 57/74/3
f 82/77/6 90/76/6 58/76/6
f 81/75/4 92/77/4 82/77/4
f 3/1/1 4/21/1 2/2/1
f 6/4/1 5/17/1 1/3/1
f 8/5/1 7/9/1 60/6/1
f 10/8/1 9/11/1 7/9/1
f 12/10/1 11/13/1 7/9/1
f 14/12/1 13/15/1 11/13/1
f 16/14/1 15/28/1 11/13/1
f 19/2/2 20/21/2 17/1/2
f 18/3/2 21/17/2 22/4/2
f 62/18/2 21/17/2 18/3/2
f 18/3/2 23/9/2 24/5/2
f 61/16/2 62/18/2 18/3/2
f 23/9/2 25/11/2 26/8/2
f 23/9/2 27/13/2 28/10/2
f 27/13/2 29/15/2 30/12/2
f 27/13/2 31/28/2 32/14/2
f 63/17/3 21/17/3 62/18/3
f 65/20/4 30/12/4 29/15/4
f 67/9/4 23/9/4 18/3/4
f 69/21/5 20/21/5 19/2/5
f 71/23/6 28/10/6 30/12/6
f 72/8/6 26/8/6 25/11/6
f 74/24/4 17/1/4 20/21/4
f 64/25/3 24/5/3 26/8/3
f 75/26/3 22/4/3 21/17/3
f 76/27/5 32/14/5 31/28/5
f 70/22/5 19/2/5 22/4/5
f 66/15/4 29/15/4 32/14/4
f 77/29/3 31/28/3 27/13/3
f 73/11/6 25/11/6 28/10/6
f 68/3/6 18/3/6 17/1/6
f 78/13/5 27/13/5 23/9/5
f 23/9/7 27/13/7 45/30/7
f 18/3/8 34/68/8 51/32/8
f 18/3/4 23/9/4 39/33/4
f 31/28/9 51/54/9 45/35/9
f 39/33/10 41/37/10 38/36/10
f 41/37/11 42/39/11 37/38/11
f 42/39/12 43/41/12 36/40/12
f 43/41/13 44/43/13 35/42/13
f 44/43/14 40/53/14 33/44/14
f 39/31/15 45/30/16 47/45/16
f 41/46/17 47/45/18 48/47/18
f 42/49/19 48/59/20 49/50/20
f 43/41/21 49/50/22 50/51/22
f 44/43/23 50/51/24 46/52/24
f 51/54/25 53/56/25 47/55/25
f 53/56/26 54/82/26 48/57/26
f 54/58/27 55/60/27 49/50/27
f 55/60/28 56/61/28 50/51/28
f 56/61/29 52/62/29 46/52/30
f 52/62/31 56/61/31 35/42/32
f 56/61/34 55/60/34 36/40/35
f 55/60/36 54/58/36 37/63/37
f 54/64/38 53/67/38 38/65/39
f 53/67/40 51/32/40 34/68/41
f 40/53/1 46/52/1 52/62/1
f 79/69/3 61/69/3 24/5/3
f 80/19/3 62/18/3 61/16/3
f 86/70/1 59/83/1 1/3/1
f 85/16/1 60/73/1 59/71/1
f 79/69/2 83/69/2 84/19/2
f 85/72/3 79/69/3 64/25/3
f 11/13/5 78/13/5 67/9/5
f 1/3/6 68/3/6 74/24/6
f 9/11/6 73/11/6 71/23/6
f 15/28/3 77/29/3 78/13/3
f 13/15/4 66/15/4 76/27/4
f 2/2/5 70/22/5 75/26/5
f 16/14/5 76/27/5 77/29/5
f 6/4/3 75/26/3 63/17/3
f 8/5/3 64/25/3 72/8/3
f 3/1/4 74/24/4 69/21/4
f 10/8/6 72/8/6 73/11/6
f 12/10/6 71/23/6 65/20/6
f 4/21/5 69/21/5 70/22/5
f 68/3/4 1/3/4 59/71/43
f 60/73/4 7/9/4 67/9/4
f 68/3/4 59/71/43 60/73/4
f 14/12/4 65/20/4 66/15/4
f 5/17/3 63/17/3 80/19/3
f 88/18/42 84/19/42 83/69/42
f 85/72/6 87/72/6 83/69/6
f 86/18/5 80/19/5 84/19/5
f 57/74/5 89/74/5 91/75/5
f 57/74/1 85/16/1 86/18/1
f 82/77/1 88/79/1 87/78/1
f 81/75/1 87/78/1 85/16/1
f 58/76/1 86/18/1 88/79/1
f 58/76/3 90/76/3 89/74/3
f 82/77/6 92/77/6 90/76/6
f 81/75/4 91/75/4 92/77/4
usemtl RedLight
f 90/76/1 91/75/1 89/74/1
f 90/76/1 92/77/1 91/75/1
usemtl Screen1
f 94/80/2 95/81/2 93/3/2
f 94/80/2 96/84/2 95/81/2
